<svg width="32" height="16" viewBox="0 0 32 16" fill="none" xmlns="http://www.w3.org/2000/svg">
<path d="M0 0.0849609V15.9143H16.1733L32 0.0849609H0ZM4.352 3.02896H4.35867C5.50933 3.03029 6.912 3.35563 7.92667 3.87296L6.83333 5.77963C5.72 5.24096 5.16 5.19029 4.52667 5.15696C3.58267 5.10629 3.108 5.44363 3.10133 5.80763C3.092 6.25029 3.99333 6.65163 4.84133 6.92496C6.12667 7.33296 7.76133 7.87829 8.01067 9.45829L10.36 3.24896H13.088L15.84 10.6836L15.8307 3.25029H18.9907C22 3.25029 23.4147 4.26896 23.4147 6.60896C23.4147 8.70896 21.9613 9.96096 19.5 9.96096H18.4827L18.4693 12.753L13.6853 12.749L13.352 11.5383C12.8587 11.701 12.3027 11.7903 11.712 11.7903C11.104 11.7903 10.532 11.6956 10.028 11.5236L9.55067 12.749L6.884 12.757L7.004 12.141C6.96578 12.1747 6.92711 12.2076 6.888 12.2396C6.17467 12.813 5.27733 13.0783 4.172 13.0983L3.888 13.101C2.68135 13.1116 1.4936 12.801 0.446667 12.201L1.42 10.2703C2.47333 10.893 3.13467 11.033 4.028 11.0143C4.49067 11.005 4.82533 10.921 5.04267 10.6956C5.1703 10.5629 5.24437 10.3877 5.25067 10.2036C5.26 9.70229 4.544 9.46629 3.67067 9.19563C2.96267 8.97696 2.15733 8.67696 1.52933 8.21563C0.784 7.66896 0.429333 6.98363 0.446667 6.01563C0.452577 5.32931 0.722879 4.67171 1.20133 4.17963C1.89333 3.46363 3.01067 3.02896 4.352 3.02896ZM18.4813 5.25563V7.79429H19.176C20.1013 7.79429 20.8387 7.48763 20.84 6.50896C20.84 5.56363 20.1013 5.25563 19.176 5.25563H18.4813ZM11.6987 6.27829L10.7013 9.42763C10.9987 9.54096 11.3427 9.60496 11.7107 9.60496C12.068 9.60496 12.404 9.54229 12.7 9.43696L11.7187 6.27696L11.6987 6.27829Z" fill="white"/>
</svg>
