<svg width="28" height="28" viewBox="0 0 28 28" fill="none" xmlns="http://www.w3.org/2000/svg">
<path d="M24.7717 27.5H2.36766C1.74533 27.5 1.30322 27.2326 1.04134 26.6979C0.779465 26.1632 0.823278 25.6464 1.17278 25.1476L8.19272 15.2898C8.46655 14.8915 8.81505 14.5868 9.23824 14.3757C9.66143 14.1646 10.122 14.0586 10.6198 14.0576H16.6316L25.1451 4.1251C25.5932 3.60234 26.1409 3.45895 26.7881 3.69494C27.4353 3.93093 27.7589 4.39793 27.7589 5.09594V24.5128C27.7589 25.3343 27.4667 26.0378 26.8822 26.6233C26.2977 27.2087 25.5942 27.501 24.7717 27.5ZM7.59528 11.0704L2.96511 17.6049C2.71617 17.9534 2.39256 18.159 1.99426 18.2217C1.59597 18.2845 1.22257 18.1909 0.87406 17.9409C0.525553 17.691 0.320431 17.3674 0.258696 16.9701C0.19696 16.5728 0.290061 16.1994 0.537999 15.8499L5.20551 9.35271C5.47934 8.95442 5.82785 8.64325 6.25103 8.41921C6.67422 8.19517 7.13475 8.08315 7.63262 8.08315H13.6444L19.6935 1.02587C19.9673 0.702259 20.3034 0.528005 20.7016 0.503112C21.0999 0.478218 21.4609 0.602685 21.7845 0.876513C22.1081 1.15034 22.2824 1.4864 22.3073 1.88469C22.3322 2.28299 22.2077 2.64394 21.9339 2.96756L15.8848 10.0248C15.611 10.3733 15.2749 10.6347 14.8766 10.809C14.4783 10.9832 14.0676 11.0704 13.6444 11.0704H7.59528Z" fill="white"/>
</svg>
