<svg width="30" height="24" viewBox="0 0 30 24" fill="none" xmlns="http://www.w3.org/2000/svg">
<path d="M27.0007 7.33366C25.0007 7.33366 23.934 9.20033 24.4673 10.667L19.6673 15.467C19.2673 15.3337 18.734 15.3337 18.334 15.467L14.8673 12.0003C15.4007 10.5337 14.334 8.66699 12.334 8.66699C10.4673 8.66699 9.26732 10.5337 9.80065 12.0003L3.66732 18.0003C2.20065 17.6003 0.333984 18.667 0.333984 20.667C0.333984 22.1337 1.53398 23.3337 3.00065 23.3337C4.86732 23.3337 6.06732 21.467 5.53398 20.0003L11.534 13.867C11.934 14.0003 12.4673 14.0003 12.8673 13.867L16.334 17.3337C15.934 18.667 17.0007 20.667 19.0007 20.667C21.0007 20.667 22.0673 18.8003 21.534 17.3337L26.334 12.5337C27.8007 12.9337 29.6673 11.867 29.6673 10.0003C29.6673 8.53366 28.4673 7.33366 27.0007 7.33366ZM19.0007 8.66699L20.2007 5.86699L23.0007 4.66699L20.2007 3.46699L19.0007 0.666992L17.8007 3.46699L15.0007 4.66699L17.8007 5.86699L19.0007 8.66699ZM3.66732 11.3337L4.33398 8.66699L7.00065 8.00033L4.33398 7.33366L3.66732 4.66699L3.00065 7.33366L0.333984 8.00033L3.00065 8.66699L3.66732 11.3337Z" fill="white"/>
</svg>
