<svg width="30" height="30" viewBox="0 0 30 30" fill="none" xmlns="http://www.w3.org/2000/svg">
<path d="M23.6735 8.41477L22.7362 6.30926L20.6535 5.36178C20.5237 5.30196 20.4136 5.20564 20.3364 5.08431C20.2591 4.96298 20.2181 4.82175 20.2181 4.67749C20.2181 4.53322 20.2591 4.39199 20.3364 4.27066C20.4136 4.14933 20.5237 4.05301 20.6535 3.99319L22.7362 3.04571L23.6735 0.940197C23.7326 0.808912 23.8279 0.697604 23.9479 0.619553C24.0679 0.541501 24.2076 0.5 24.3503 0.5C24.4931 0.5 24.6327 0.541501 24.7528 0.619553C24.8728 0.697604 24.9681 0.808912 25.0272 0.940197L25.9645 3.04571L28.0472 3.99319C28.177 4.05301 28.2871 4.14933 28.3643 4.27066C28.4415 4.39199 28.4826 4.53322 28.4826 4.67749C28.4826 4.82175 28.4415 4.96298 28.3643 5.08431C28.2871 5.20564 28.177 5.30196 28.0472 5.36178L25.9645 6.30926L25.0272 8.41477C24.7743 9.00131 23.9412 9.00131 23.6735 8.41477ZM28.4935 15.5284L28.0174 14.4456C27.9582 14.3143 27.863 14.203 27.743 14.1249C27.6229 14.0469 27.4832 14.0054 27.3405 14.0054C27.1978 14.0054 27.0581 14.0469 26.9381 14.1249C26.8181 14.203 26.7228 14.3143 26.6636 14.4456L26.1876 15.5284L25.1016 16.0097C24.9717 16.0695 24.8616 16.1658 24.7844 16.2871C24.7072 16.4085 24.6662 16.5497 24.6662 16.694C24.6662 16.8382 24.7072 16.9795 24.7844 17.1008C24.8616 17.2221 24.9717 17.3184 25.1016 17.3783L26.1727 17.8595L26.6488 18.9574C26.7079 19.0887 26.8032 19.2 26.9232 19.278C27.0433 19.3561 27.1829 19.3976 27.3257 19.3976C27.4684 19.3976 27.6081 19.3561 27.7281 19.278C27.8481 19.2 27.9434 19.0887 28.0025 18.9574L28.4786 17.8745L29.5646 17.3933C29.6944 17.3335 29.8045 17.2372 29.8817 17.1158C29.959 16.9945 30 16.8533 30 16.709C30 16.5647 29.959 16.4235 29.8817 16.3022C29.8045 16.1808 29.6944 16.0845 29.5646 16.0247L28.4935 15.5284ZM20.9957 18.0099L22.8255 19.4086C23.4206 19.8598 23.5842 20.702 23.2123 21.3637L20.8023 25.5747C20.4304 26.2365 19.627 26.5072 18.9427 26.2064L16.8154 25.304C16.5179 25.4995 16.1906 25.695 15.8633 25.8605L15.5806 28.1765C15.4914 28.9285 14.8517 29.5 14.1079 29.5H9.30274C8.55891 29.5 7.91922 28.9285 7.82996 28.1765L7.54731 25.8605C7.22002 25.695 6.90762 25.5146 6.59521 25.304L4.46786 26.2064C3.78354 26.5072 2.98021 26.2365 2.6083 25.5747L0.198301 21.3637C-0.173612 20.702 -0.00997035 19.8748 0.585091 19.4086L2.4149 18.0099V17.4534C2.4149 17.273 2.4149 17.0775 2.42978 16.897L0.599967 15.4983C0.00490617 15.0471 -0.158736 14.2049 0.213178 13.5432L2.62318 9.33218C2.99509 8.67044 3.79842 8.39973 4.48274 8.70052L6.61009 9.60289C6.90762 9.40737 7.2349 9.21186 7.56218 9.04643L7.84484 6.73036C7.91922 5.99343 8.55891 5.42194 9.30274 5.42194H14.1079C14.8517 5.42194 15.4914 5.99343 15.5806 6.7454L15.8633 9.06147C16.1906 9.2269 16.503 9.40737 16.8154 9.61792L18.9427 8.71556C19.627 8.41477 20.4304 8.68548 20.8023 9.34722L23.2123 13.5582C23.5842 14.22 23.4206 15.0471 22.8255 15.5134L20.9957 16.912C21.0106 17.0925 21.0106 17.273 21.0106 17.4685C21.0106 17.664 21.0106 17.8294 20.9957 18.0099ZM16.1757 17.4534C16.1757 14.9569 14.1822 12.9416 11.7127 12.9416C9.24323 12.9416 7.24978 14.9569 7.24978 17.4534C7.24978 19.95 9.24323 21.9653 11.7127 21.9653C14.1822 21.9653 16.1757 19.95 16.1757 17.4534Z" fill="white"/>
</svg>
