<svg width="28" height="28" viewBox="0 0 28 28" fill="none" xmlns="http://www.w3.org/2000/svg">
<path d="M18.3268 28C17.054 28.0021 15.825 27.5356 14.8743 26.6893V19.2503H18.374C19.0702 19.2503 19.7378 18.9737 20.2301 18.4815C20.7223 17.9892 20.9989 17.3215 20.9989 16.6254V15.6017C21.5826 15.3953 22.0747 14.9891 22.388 14.455C22.7013 13.9209 22.8157 13.2933 22.711 12.683C22.6063 12.0727 22.2892 11.5191 21.8158 11.12C21.3424 10.7209 20.7431 10.502 20.1239 10.502C19.5047 10.502 18.9055 10.7209 18.4321 11.12C17.9587 11.5191 17.6416 12.0727 17.5369 12.683C17.4322 13.2933 17.5466 13.9209 17.8599 14.455C18.1732 14.9891 18.6652 15.3953 19.249 15.6017V16.6254C19.249 16.8574 19.1568 17.08 18.9927 17.2441C18.8286 17.4082 18.6061 17.5003 18.374 17.5003H14.8743V0.809413C15.4496 0.391549 16.1207 0.125081 16.826 0.034526C17.5312 -0.0560292 18.2479 0.0322362 18.9101 0.291202C19.5723 0.550167 20.1588 0.971516 20.6155 1.51648C21.0723 2.06145 21.3846 2.71253 21.5238 3.40983L21.7426 4.50704L22.453 4.64878C23.5231 4.86343 24.4859 5.44194 25.1778 6.28602C25.8697 7.1301 26.248 8.1877 26.2485 9.27913V9.62561C26.2485 10.8961 25.7061 12.0405 24.8399 12.8403C25.8979 13.3645 26.7663 14.2053 27.3246 15.2458C27.8829 16.2863 28.1032 17.4748 27.9551 18.6463C27.8069 19.8178 27.2976 20.914 26.4978 21.7827C25.6981 22.6515 24.6477 23.2496 23.4925 23.4939L23.4277 23.8176C23.1928 24.9974 22.556 26.0591 21.6258 26.8218C20.6956 27.5845 19.5297 28.0009 18.3268 28ZM10.6343 0.000940797C11.5652 0.000940797 12.4244 0.30018 13.1244 0.809413V7.0007H12.1007C11.8943 6.41691 11.4882 5.92488 10.9541 5.61157C10.42 5.29827 9.79239 5.18386 9.18212 5.28857C8.57185 5.39327 8.01824 5.71036 7.61914 6.18378C7.22005 6.6572 7.00115 7.25647 7.00115 7.87567C7.00115 8.49488 7.22005 9.09415 7.61914 9.56757C8.01824 10.041 8.57185 10.3581 9.18212 10.4628C9.79239 10.5675 10.42 10.4531 10.9541 10.1398C11.4882 9.82647 11.8943 9.33444 12.1007 8.75064H13.1244V26.6893C12.4398 27.2966 11.6072 27.7126 10.7105 27.8952C9.81375 28.0779 8.88473 28.0208 8.01715 27.7297C7.14956 27.4386 6.37411 26.9238 5.76904 26.2373C5.16397 25.5507 4.7507 24.7167 4.57093 23.8194L4.50619 23.4939C3.51509 23.284 2.59811 22.813 1.85016 22.1297C1.10222 21.4464 0.550497 20.5756 0.252116 19.6075C-0.0462645 18.6393 -0.0804582 17.609 0.153075 16.6232C0.386608 15.6373 0.879379 14.7319 1.58037 14.0005H7.87472C8.10677 14.0005 8.32931 14.0927 8.4934 14.2567C8.65748 14.4208 8.74966 14.6434 8.74966 14.8754V15.8992C8.16589 16.1056 7.67387 16.5117 7.36058 17.0458C7.04728 17.5799 6.93287 18.2075 7.03758 18.8178C7.14228 19.4281 7.45936 19.9817 7.93276 20.3808C8.40617 20.78 9.00542 20.9989 9.62461 20.9989C10.2438 20.9989 10.843 20.78 11.3165 20.3808C11.7899 19.9817 12.1069 19.4281 12.2116 18.8178C12.3163 18.2075 12.2019 17.5799 11.8886 17.0458C11.5753 16.5117 11.0833 16.1056 10.4995 15.8992V14.8754C10.4995 14.1793 10.223 13.5116 9.73076 13.0193C9.2385 12.5271 8.57087 12.2505 7.87472 12.2505H2.62506C2.05712 11.4933 1.75011 10.5722 1.75011 9.62561V9.27913C1.75063 8.1877 2.12897 7.1301 2.82087 6.28602C3.51276 5.44194 4.47554 4.86343 5.54562 4.64878L6.25607 4.50879L6.47481 3.40983C6.66611 2.44782 7.18539 1.58206 7.94399 0.960345C8.7026 0.338633 9.65348 -0.000467856 10.6343 0.000940797ZM9.62461 7.0007C9.85666 7.0007 10.0792 7.09289 10.2433 7.25698C10.4074 7.42107 10.4995 7.64362 10.4995 7.87567C10.4995 8.10773 10.4074 8.33028 10.2433 8.49437C10.0792 8.65846 9.85666 8.75064 9.62461 8.75064C9.39256 8.75064 9.17001 8.65846 9.00593 8.49437C8.84184 8.33028 8.74966 8.10773 8.74966 7.87567C8.74966 7.64362 8.84184 7.42107 9.00593 7.25698C9.17001 7.09289 9.39256 7.0007 9.62461 7.0007ZM9.62461 19.2503C9.85666 19.2503 10.0792 19.1581 10.2433 18.994C10.4074 18.8299 10.4995 18.6074 10.4995 18.3753C10.4995 18.1433 10.4074 17.9207 10.2433 17.7566C10.0792 17.5925 9.85666 17.5003 9.62461 17.5003C9.39256 17.5003 9.17001 17.5925 9.00593 17.7566C8.84184 17.9207 8.74966 18.1433 8.74966 18.3753C8.74966 18.6074 8.84184 18.8299 9.00593 18.994C9.17001 19.1581 9.39256 19.2503 9.62461 19.2503ZM20.1239 14.0005C20.356 14.0005 20.5785 13.9083 20.7426 13.7442C20.9067 13.5801 20.9989 13.3576 20.9989 13.1255C20.9989 12.8934 20.9067 12.6709 20.7426 12.5068C20.5785 12.3427 20.356 12.2505 20.1239 12.2505C19.8919 12.2505 19.6693 12.3427 19.5053 12.5068C19.3412 12.6709 19.249 12.8934 19.249 13.1255C19.249 13.3576 19.3412 13.5801 19.5053 13.7442C19.6693 13.9083 19.8919 14.0005 20.1239 14.0005Z" fill="white"/>
</svg>
