<svg width="28" height="28" viewBox="0 0 28 28" fill="none" xmlns="http://www.w3.org/2000/svg">
<path d="M13.9963 3.66871e-08C12.1009 -0.000181394 10.2671 0.672573 8.8215 1.89839C7.37592 3.1242 6.41251 4.82344 6.10294 6.69333C4.56789 6.83854 3.14767 7.56913 2.13692 8.73353C1.12617 9.89794 0.602489 11.4068 0.674526 12.947C0.746563 14.4872 1.40879 15.9406 2.52381 17.0055C3.63882 18.0705 5.12104 18.6654 6.66294 18.6667H15.5696L15.7469 17.9907C15.9463 17.2261 16.3677 16.5378 16.9578 16.0124C17.5479 15.487 18.2805 15.1482 19.0629 15.0387C19.387 14.2786 19.8944 13.6108 20.5396 13.0947C21.1849 12.5787 21.948 12.2307 22.7607 12.0817C23.5734 11.9327 24.4103 11.9874 25.1967 12.241C25.9831 12.4945 26.6944 12.939 27.2669 13.5347C27.3087 13.2502 27.3296 12.9609 27.3296 12.6667C27.3295 11.1724 26.7718 9.73194 25.7657 8.62716C24.7595 7.52239 23.3774 6.8328 21.8896 6.69333C21.58 4.82344 20.6166 3.1242 19.171 1.89839C17.7255 0.672573 15.8916 -0.000181394 13.9963 3.66871e-08ZM23.6629 15.3333C24.105 15.3333 24.5289 15.5089 24.8415 15.8215C25.154 16.134 25.3296 16.558 25.3296 17C25.3296 17.442 25.154 17.8659 24.8415 18.1785C24.5289 18.4911 24.105 18.6667 23.6629 18.6667C23.2209 18.6667 22.797 18.4911 22.4844 18.1785C22.1719 17.8659 21.9963 17.442 21.9963 17C21.9963 16.558 22.1719 16.134 22.4844 15.8215C22.797 15.5089 23.2209 15.3333 23.6629 15.3333ZM19.6176 18.3333H20.2456C20.5671 19.1578 21.1758 19.8383 21.9596 20.2493C22.7433 20.6603 23.6492 20.7741 24.5102 20.5697C25.3713 20.3653 26.1294 19.8565 26.6448 19.1371C27.1602 18.4177 27.3981 17.5362 27.3147 16.6552C27.2313 15.7741 26.8322 14.953 26.1909 14.3431C25.5497 13.7332 24.7096 13.3757 23.8255 13.3365C22.9414 13.2973 22.0729 13.579 21.3802 14.1298C20.6875 14.6805 20.2173 15.4631 20.0563 16.3333H19.6163C19.0265 16.3337 18.4536 16.5295 17.987 16.8902C17.5204 17.2509 17.1865 17.756 17.0376 18.3267L15.6869 23.5013C15.6497 23.6442 15.5662 23.7706 15.4494 23.8609C15.3326 23.9511 15.1892 24 15.0416 24H13.9816C13.9012 23.1203 13.506 22.2992 12.8685 21.6876C12.2311 21.0761 11.3943 20.7153 10.512 20.6714C9.62971 20.6276 8.76128 20.9038 8.06637 21.4492C7.37147 21.9946 6.89682 22.7725 6.7297 23.6399C6.56258 24.5073 6.71422 25.4059 7.15675 26.1704C7.59927 26.935 8.30293 27.514 9.13833 27.8012C9.97372 28.0883 10.8847 28.0642 11.7037 27.7333C12.5228 27.4023 13.1948 26.7869 13.5963 26H15.0416C15.6316 25.9999 16.2049 25.8042 16.6717 25.4435C17.1386 25.0828 17.4726 24.5775 17.6216 24.0067L18.9723 18.832C19.0095 18.6892 19.093 18.5627 19.2098 18.4725C19.3266 18.3822 19.47 18.3333 19.6176 18.3333ZM8.66294 24.3333C8.66294 23.8913 8.83854 23.4674 9.1511 23.1548C9.46366 22.8423 9.88758 22.6667 10.3296 22.6667C10.7716 22.6667 11.1956 22.8423 11.5081 23.1548C11.8207 23.4674 11.9963 23.8913 11.9963 24.3333C11.9963 24.7754 11.8207 25.1993 11.5081 25.5118C11.1956 25.8244 10.7716 26 10.3296 26C9.88758 26 9.46366 25.8244 9.1511 25.5118C8.83854 25.1993 8.66294 24.7754 8.66294 24.3333Z" fill="white"/>
</svg>
