<?xml version="1.0" standalone="no"?>
<!DOCTYPE svg PUBLIC "-//W3C//DTD SVG 20010904//EN"
 "http://www.w3.org/TR/2001/REC-SVG-20010904/DTD/svg10.dtd">
<svg version="1.0" xmlns="http://www.w3.org/2000/svg"
 width="558.000000pt" height="291.000000pt" viewBox="0 0 558.000000 291.000000"
 preserveAspectRatio="xMidYMid meet">

<g transform="translate(0.000000,291.000000) scale(0.100000,-0.100000)"
fill="#000000" stroke="none">
<path d="M0 1455 l0 -1455 2790 0 2790 0 0 1455 0 1455 -885 0 -885 0 0 -29
c0 -61 -83 -114 -144 -91 -30 11 -66 64 -66 98 l0 22 -1800 0 -1800 0 0 -1455z
m371 305 c21 -12 26 -45 8 -56 -14 -9 -64 41 -55 55 9 14 22 14 47 1z m994
-311 c4 -6 5 -12 2 -15 -7 -7 -37 7 -37 17 0 13 27 11 35 -2z m-1015 -578 c0
-12 -20 -25 -27 -18 -7 7 6 27 18 27 5 0 9 -4 9 -9z m1335 -21 c17 -33 20 -70
6 -70 -18 0 -62 67 -55 84 10 25 32 19 49 -14z m658 15 c1 -5 -6 -11 -15 -13
-11 -2 -18 3 -18 13 0 17 30 18 33 0z m-283 -109 c0 -6 18 -30 41 -51 53 -52
64 -72 48 -91 -22 -27 -64 -17 -103 26 -40 44 -44 66 -21 111 15 28 35 32 35
5z m2964 -121 c14 -38 -22 -61 -80 -51 -44 9 -52 25 -24 48 28 22 95 25 104 3z
m-4600 -45 c28 -10 35 -40 13 -58 -7 -6 -27 -8 -47 -3 -28 5 -36 12 -38 33 -3
25 4 31 40 37 4 0 18 -3 32 -9z m2346 -55 c0 -19 -20 -29 -32 -17 -15 15 -2
43 17 36 8 -3 15 -12 15 -19z m-665 -32 c25 -38 32 -68 16 -77 -8 -5 -17 11
-47 82 -19 44 -1 41 31 -5z m1025 22 c0 -8 -7 -15 -15 -15 -8 0 -15 7 -15 15
0 8 7 15 15 15 8 0 15 -7 15 -15z m-382 -118 c44 -45 53 -78 29 -112 -13 -17
-16 -16 -53 21 -50 50 -72 98 -54 119 19 23 32 18 78 -28z m-873 -43 c3 -26 9
-53 12 -60 3 -8 -1 -14 -9 -14 -15 0 -38 60 -38 99 0 42 28 22 35 -25z m-1157
-47 c2 -18 -2 -29 -13 -33 -24 -9 -39 10 -31 41 9 35 40 30 44 -8z m-78 -88
c0 -11 -27 -12 -34 0 -3 4 -3 11 0 14 8 8 34 -3 34 -14z m3078 -25 c35 -30 40
-39 32 -55 -14 -26 -35 -24 -76 8 -39 29 -58 58 -49 73 12 20 53 9 93 -26z
m-1822 15 c10 -17 -13 -36 -27 -22 -12 12 -4 33 11 33 5 0 12 -5 16 -11z m849
-24 c0 -28 -29 -25 -33 3 -3 19 0 23 15 20 10 -2 18 -12 18 -23z"/>
</g>
</svg>
