<?xml version="1.0" standalone="no"?>
<!DOCTYPE svg PUBLIC "-//W3C//DTD SVG 20010904//EN"
 "http://www.w3.org/TR/2001/REC-SVG-20010904/DTD/svg10.dtd">
<svg version="1.0" xmlns="http://www.w3.org/2000/svg"
 width="557.000000pt" height="291.000000pt" viewBox="0 0 557.000000 291.000000"
 preserveAspectRatio="xMidYMid meet">

<g transform="translate(0.000000,291.000000) scale(0.100000,-0.100000)"
fill="#000000" stroke="none">
<path d="M0 1455 l0 -1455 2785 0 2785 0 0 1455 0 1455 -2785 0 -2785 0 0
-1455z m2130 1309 c0 -8 -4 -12 -10 -9 -5 3 -10 10 -10 16 0 5 5 9 10 9 6 0
10 -7 10 -16z m759 -53 c17 -11 7 -41 -14 -41 -9 0 -15 9 -15 25 0 27 6 30 29
16z m548 -133 c29 -10 62 -27 75 -38 19 -15 21 -22 13 -46 -16 -46 -50 -43
-165 17 -56 28 -104 58 -107 66 -3 7 2 22 12 33 16 17 20 18 68 3 29 -8 75
-24 104 -35z m73 42 c0 -5 -4 -10 -10 -10 -5 0 -10 5 -10 10 0 6 5 10 10 10 6
0 10 -4 10 -10z m-430 -120 c0 -11 -7 -20 -15 -20 -15 0 -21 21 -8 33 12 13
23 7 23 -13z m-1313 -127 c46 -25 58 -38 43 -48 -10 -6 -120 64 -120 77 0 9
19 1 77 -29z m1395 2 c0 -5 -5 -11 -11 -13 -6 -2 -11 4 -11 13 0 9 5 15 11 13
6 -2 11 -8 11 -13z m-1389 -81 c27 -20 46 -38 43 -41 -6 -6 -78 41 -97 63 -20
25 5 14 54 -22z m1673 25 c3 -6 -3 -21 -15 -32 -19 -20 -22 -20 -37 -5 -9 9
-14 24 -11 32 7 18 52 22 63 5z m-157 -59 c20 -14 38 -18 62 -14 47 7 226 -84
221 -112 -7 -34 -22 -45 -46 -33 -17 10 -19 9 -8 -2 6 -7 12 -17 12 -21 0 -13
-35 -9 -55 6 -15 11 -17 17 -7 28 17 22 -4 38 -50 38 -39 0 -88 25 -161 83
-27 22 -34 33 -25 39 19 12 27 10 57 -12z m-772 -26 c8 -20 -8 -36 -26 -25
-15 10 -8 41 9 41 6 0 13 -7 17 -16z m-2049 -82 c2 -7 -3 -12 -12 -12 -9 0
-16 7 -16 16 0 17 22 14 28 -4z m1812 -73 c91 -35 115 -53 124 -91 9 -39 -6
-36 -111 17 -110 57 -127 70 -120 90 9 21 16 20 107 -16z m2979 -244 c53 -18
179 -92 208 -121 49 -50 18 -128 -51 -128 -39 0 -132 57 -215 132 l-54 48 18
42 c21 46 31 50 94 27z m-950 -129 c9 -11 9 -20 2 -35 -10 -17 -15 -18 -41 -9
-34 11 -34 12 -20 39 13 22 43 25 59 5z m-1707 -101 c113 -42 125 -52 106 -91
-18 -37 -39 -34 -138 17 -99 52 -125 72 -117 93 10 24 47 20 149 -19z m836
-77 c-3 -25 -33 -34 -57 -19 -21 13 4 41 36 41 20 0 24 -4 21 -22z m-3120 -74
c2 -11 -3 -26 -11 -33 -29 -24 -70 17 -46 46 17 20 53 12 57 -13z m2285 -504
c132 -42 168 -84 134 -156 -18 -37 -49 -50 -102 -41 -51 8 -204 87 -222 113
-16 26 -12 76 8 101 18 21 82 15 182 -17z"/>
</g>
</svg>
