<?xml version="1.0" standalone="no"?>
<!DOCTYPE svg PUBLIC "-//W3C//DTD SVG 20010904//EN"
 "http://www.w3.org/TR/2001/REC-SVG-20010904/DTD/svg10.dtd">
<svg version="1.0" xmlns="http://www.w3.org/2000/svg"
 width="557.000000pt" height="292.000000pt" viewBox="0 0 557.000000 292.000000"
 preserveAspectRatio="xMidYMid meet">

<g transform="translate(0.000000,292.000000) scale(0.100000,-0.100000)"
fill="#000000" stroke="none">
<path d="M0 1460 l0 -1460 1115 0 1116 0 -31 45 c-17 24 -54 92 -82 150 l-52
107 20 35 c19 36 78 72 119 73 25 0 105 -85 174 -185 61 -88 74 -141 47 -193
l-17 -32 1581 0 1580 0 0 1460 0 1460 -1532 -2 c-843 -1 -1510 -3 -1483 -5 69
-4 97 -12 90 -23 -13 -22 -215 -6 -215 16 0 12 -197 14 -1215 14 l-1215 0 0
-1460z m5290 1366 c0 -3 -4 -8 -10 -11 -5 -3 -10 -1 -10 4 0 6 5 11 10 11 6 0
10 -2 10 -4z m-1051 -60 c9 -10 9 -16 1 -21 -17 -11 -40 3 -34 20 8 19 18 19
33 1z m-89 -265 c0 -16 -20 -26 -110 -55 -60 -20 -112 -36 -115 -36 -3 0 -10
11 -15 24 -8 22 -14 24 -45 19 -19 -3 -35 -3 -35 0 0 10 108 39 195 53 116 18
125 17 125 -5z m-2385 -42 c10 -15 -1 -23 -20 -15 -9 3 -13 10 -10 16 8 13 22
13 30 -1z m683 -11 c-3 -7 -11 -13 -18 -13 -7 0 -15 6 -17 13 -3 7 4 12 17 12
13 0 20 -5 18 -12z m1132 -283 c0 -8 -6 -15 -14 -15 -17 0 -28 14 -19 24 12
12 33 6 33 -9z m-441 -4 c22 -14 3 -31 -76 -67 -86 -39 -99 -41 -112 -15 -14
26 2 38 91 67 85 27 79 26 97 15z m-744 -57 c0 -27 -103 -88 -122 -72 -28 23
-10 52 47 75 62 25 75 25 75 -3z m-1782 -64 c13 -12 4 -41 -16 -54 -14 -9 -27
-6 -65 15 -26 14 -49 34 -50 44 -4 15 2 16 60 10 34 -4 67 -11 71 -15z m3745
8 c16 -16 15 -23 -4 -42 -22 -22 -43 -20 -53 7 -15 38 28 64 57 35z m-4190
-111 c2 -12 -3 -17 -17 -17 -12 0 -21 6 -21 13 0 31 32 34 38 4z m418 -12 c40
-17 47 -28 29 -51 -13 -19 -14 -19 -49 0 -44 24 -70 51 -61 66 7 11 25 8 81
-15z m2011 -301 c3 -8 1 -20 -6 -27 -14 -14 -47 15 -37 32 10 16 36 13 43 -5z
m2317 -589 c21 -44 41 -98 44 -121 4 -35 1 -44 -23 -62 -15 -12 -33 -22 -40
-22 -26 0 -64 42 -80 89 -45 136 -35 205 28 199 29 -3 35 -10 71 -83z m-3620
-326 c38 -30 154 -181 172 -225 29 -69 -5 -144 -75 -165 -53 -16 -100 6 -141
66 -45 65 -107 193 -115 237 -6 34 -4 40 26 65 57 49 92 55 133 22z"/>
</g>
</svg>
