<?xml version="1.0" standalone="no"?>
<!DOCTYPE svg PUBLIC "-//W3C//DTD SVG 20010904//EN"
 "http://www.w3.org/TR/2001/REC-SVG-20010904/DTD/svg10.dtd">
<svg version="1.0" xmlns="http://www.w3.org/2000/svg"
 width="557.000000pt" height="291.000000pt" viewBox="0 0 557.000000 291.000000"
 preserveAspectRatio="xMidYMid meet">

<g transform="translate(0.000000,291.000000) scale(0.100000,-0.100000)"
fill="#000000" stroke="none">
<path d="M0 1455 c0 -847 4 -1455 9 -1455 5 0 11 7 15 15 7 19 36 19 36 0 0
-13 87 -15 724 -15 682 0 725 1 729 17 4 17 5 17 6 1 1 -17 105 -18 2026 -18
l2025 0 0 1454 0 1455 -625 1 -626 0 16 -24 c19 -29 14 -54 -22 -96 -41 -49
-113 -34 -133 26 -10 29 -9 38 10 64 l21 30 -1205 0 -1206 0 0 -45 c0 -61 -23
-95 -64 -95 -17 0 -41 7 -53 15 l-22 15 24 55 25 55 -855 0 -855 0 0 -1455z
m4019 909 c63 -53 22 -124 -71 -124 -59 0 -92 19 -96 53 -10 81 100 128 167
71z m-3707 -205 c36 -48 -4 -119 -67 -119 -26 0 -38 7 -54 29 -29 40 -26 65
10 96 40 33 84 31 111 -6z m728 -426 c-1 -25 -24 -53 -44 -53 -24 0 -20 36 6
54 29 21 38 20 38 -1z m932 -130 c28 -25 23 -67 -13 -102 -36 -37 -48 -38 -83
-10 -31 25 -33 50 -5 95 16 27 27 34 52 34 17 0 39 -7 49 -17z m-94 -167 c2
-15 1 -39 -2 -52 -8 -31 -48 -32 -76 -2 -23 25 -23 28 -10 63 9 23 15 26 47
23 33 -3 38 -6 41 -32z m3120 -108 c7 -7 12 -26 12 -43 0 -38 -16 -55 -50 -55
-34 0 -50 17 -50 55 0 38 16 55 50 55 14 0 31 -5 38 -12z m-1331 -27 c17 -22
16 -26 -10 -57 -19 -22 -29 -26 -51 -20 -29 7 -50 45 -39 72 13 35 75 38 100
5z m-3498 -7 c12 -15 21 -31 21 -37 0 -5 -17 -27 -39 -48 -27 -28 -47 -39 -68
-39 -64 0 -71 54 -14 111 45 46 72 49 100 13z m909 -101 c-2 -10 -10 -18 -18
-18 -8 0 -16 8 -18 18 -2 12 3 17 18 17 15 0 20 -5 18 -17z m2247 -203 c3 -6
-1 -13 -10 -16 -19 -8 -30 0 -20 15 8 14 22 14 30 1z m-2355 -10 c0 -5 -4 -10
-9 -10 -6 0 -13 5 -16 10 -3 6 1 10 9 10 9 0 16 -4 16 -10z m3936 -164 c3 -14
3 -29 0 -34 -8 -13 -130 -44 -156 -40 -31 4 -48 33 -34 56 12 18 86 39 146 41
32 1 39 -3 44 -23z m-4356 -122 c0 -9 -5 -14 -12 -12 -18 6 -21 28 -4 28 9 0
16 -7 16 -16z m3544 -84 c14 -14 -1 -39 -29 -50 -29 -11 -134 -14 -159 -4 -19
7 -22 60 -3 68 17 7 180 -5 191 -14z m-954 -61 c0 -21 -7 -23 -29 -10 -12 8
-12 12 -2 25 16 19 31 12 31 -15z m-2530 -69 c0 -5 -4 -10 -10 -10 -5 0 -10 5
-10 10 0 6 5 10 10 10 6 0 10 -4 10 -10z m3170 -60 c0 -5 -4 -10 -10 -10 -5 0
-10 5 -10 10 0 6 5 10 10 10 6 0 10 -4 10 -10z m-3288 -72 c-16 -16 -37 4 -28
28 6 16 8 16 23 1 13 -13 15 -19 5 -29z m801 -34 c-6 -16 -12 -17 -32 -5 -12
8 -13 12 -2 25 16 19 43 3 34 -20z m-1175 -1 c5 -17 -26 -29 -40 -15 -6 6 -7
15 -3 22 9 14 37 9 43 -7z m2082 -8 c0 -8 -7 -15 -15 -15 -8 0 -15 7 -15 15 0
8 7 15 15 15 8 0 15 -7 15 -15z m1741 0 c-1 -15 -24 -12 -29 3 -3 9 2 13 12
10 10 -1 17 -7 17 -13z m-2471 -276 c0 -5 -4 -9 -10 -9 -5 0 -10 7 -10 16 0 8
5 12 10 9 6 -3 10 -10 10 -16z"/>
</g>
</svg>
