<svg width="18" height="18" viewBox="0 0 18 18" fill="none" xmlns="http://www.w3.org/2000/svg">
<path fill-rule="evenodd" clip-rule="evenodd" d="M0.5 9C0.5 5.60459 0.5 3.90689 1.3091 2.68408C1.6704 2.13803 2.13803 1.6704 2.68408 1.3091C3.90689 0.5 5.60459 0.5 9 0.5C12.3954 0.5 14.0931 0.5 15.3159 1.3091C15.862 1.6704 16.3296 2.13803 16.6909 2.68408C17.5 3.90689 17.5 5.60459 17.5 9C17.5 12.3954 17.5 14.0931 16.6909 15.3159C16.3296 15.862 15.862 16.3296 15.3159 16.6909C14.0931 17.5 12.3954 17.5 9 17.5C5.60459 17.5 3.90689 17.5 2.68408 16.6909C2.13803 16.3296 1.6704 15.862 1.3091 15.3159C0.5 14.0931 0.5 12.3954 0.5 9ZM13.4004 9.00021C13.4004 11.4306 11.4302 13.4008 8.99985 13.4008C6.56949 13.4008 4.5993 11.4306 4.5993 9.00021C4.5993 6.56986 6.56949 4.59966 8.99985 4.59966C11.4302 4.59966 13.4004 6.56986 13.4004 9.00021ZM8.99985 11.9119C10.608 11.9119 11.9116 10.6083 11.9116 9.00021C11.9116 7.39211 10.608 6.08849 8.99985 6.08849C7.39175 6.08849 6.08812 7.39211 6.08812 9.00021C6.08812 10.6083 7.39175 11.9119 8.99985 11.9119ZM13.5742 5.41257C14.1453 5.41257 14.6082 4.94964 14.6082 4.37857C14.6082 3.80751 14.1453 3.34457 13.5742 3.34457C13.0031 3.34457 12.5402 3.80751 12.5402 4.37857C12.5402 4.94964 13.0031 5.41257 13.5742 5.41257Z" fill="white"/>
</svg>
