<svg width="18" height="19" viewBox="0 0 18 19" fill="none" xmlns="http://www.w3.org/2000/svg">
<path d="M13.4187 6.93588L16.0703 9.58755C16.5006 10.0121 16.8427 10.5176 17.0768 11.0749C17.3109 11.6322 17.4325 12.2303 17.4345 12.8347C17.4365 13.4392 17.319 14.0381 17.0886 14.597C16.8582 15.1558 16.5195 15.6636 16.0921 16.091C15.6647 16.5184 15.1569 16.8571 14.5981 17.0875C14.0392 17.3179 13.4403 17.4354 12.8359 17.4334C12.2314 17.4314 11.6333 17.3098 11.076 17.0757C10.5187 16.8416 10.0132 16.4995 9.58867 16.0692L8.70533 15.1859C8.58589 15.0706 8.4906 14.9327 8.42502 14.7803C8.35944 14.6278 8.32488 14.4638 8.32336 14.2978C8.32184 14.1318 8.35339 13.9672 8.41617 13.8136C8.47895 13.6599 8.5717 13.5203 8.68901 13.4029C8.80632 13.2855 8.94584 13.1926 9.09943 13.1297C9.25302 13.0668 9.4176 13.035 9.58357 13.0364C9.74955 13.0378 9.91359 13.0722 10.0661 13.1376C10.2187 13.2031 10.3566 13.2982 10.472 13.4176L11.357 14.3017C11.7483 14.6895 12.2774 14.9065 12.8283 14.9053C13.3793 14.904 13.9073 14.6845 14.2968 14.2949C14.6863 13.9052 14.9057 13.3772 14.9068 12.8262C14.9079 12.2752 14.6908 11.7463 14.3028 11.355L11.6512 8.70338C11.3646 8.41665 11.0005 8.21977 10.6037 8.13688C10.2068 8.05399 9.79442 8.08868 9.417 8.23672C9.28256 8.29005 9.15645 8.34449 9.03867 8.40005L8.652 8.58088C8.13533 8.81422 7.73783 8.91422 7.232 8.40922C6.50533 7.68255 6.69367 7.01172 7.5795 6.40088C8.46192 5.79368 9.52915 5.51472 10.5958 5.61246C11.6625 5.71019 12.6613 6.17844 13.4187 6.93588ZM8.41033 1.92755L9.29367 2.81088C9.52148 3.04653 9.64762 3.36222 9.64493 3.68997C9.64224 4.01772 9.51092 4.3313 9.27927 4.56317C9.04762 4.79504 8.73417 4.92665 8.40642 4.92965C8.07867 4.93265 7.76286 4.8068 7.527 4.57922L6.64283 3.69588C6.45071 3.49685 6.22087 3.33807 5.96673 3.22881C5.71258 3.11956 5.43922 3.06201 5.1626 3.05953C4.88598 3.05705 4.61163 3.10968 4.35557 3.21436C4.09951 3.31904 3.86685 3.47367 3.67119 3.66922C3.47552 3.86478 3.32076 4.09734 3.21594 4.35334C3.11112 4.60935 3.05833 4.88367 3.06065 5.16029C3.06298 5.43691 3.12037 5.7103 3.22948 5.96451C3.3386 6.21872 3.49724 6.44864 3.69617 6.64088L6.34783 9.29255C6.63444 9.57928 6.99848 9.77616 7.39533 9.85905C7.79217 9.94194 8.20458 9.90725 8.582 9.75922C8.71644 9.70588 8.84256 9.65144 8.96033 9.59588L9.347 9.41505C9.86367 9.18172 10.262 9.08172 10.767 9.58672C11.4937 10.3134 11.3053 10.9842 10.4195 11.595C9.53708 12.2023 8.46985 12.4812 7.40317 12.3835C6.33649 12.2857 5.33773 11.8175 4.58033 11.06L1.92867 8.40838C1.49838 7.98383 1.15633 7.47835 0.922206 6.92106C0.68808 6.36376 0.566504 5.76566 0.564479 5.16119C0.562454 4.55672 0.680019 3.95781 0.910407 3.39896C1.14079 2.84011 1.47945 2.33236 1.90688 1.90493C2.33431 1.4775 2.84207 1.13884 3.40092 0.908453C3.95977 0.678066 4.55867 0.560501 5.16314 0.562526C5.76761 0.564551 6.36572 0.686127 6.92301 0.920253C7.4803 1.15438 7.98578 1.49726 8.41033 1.92755Z" fill="white"/>
</svg>
