<svg width="19" height="18" viewBox="0 0 19 18" fill="none" xmlns="http://www.w3.org/2000/svg">
<path d="M0.75 2.78501C0.75 2.23986 0.947078 1.79013 1.34122 1.4358C1.73535 1.08146 2.24775 0.904297 2.87838 0.904297C3.49775 0.904297 3.99887 1.07873 4.38176 1.42763C4.7759 1.78741 4.97297 2.25622 4.97297 2.83407C4.97297 3.3574 4.78154 3.79349 4.39865 4.14239C4.00451 4.50218 3.48649 4.68207 2.84459 4.68207H2.8277C2.20833 4.68207 1.70721 4.50218 1.32432 4.14239C0.941436 3.7826 0.75 3.33014 0.75 2.78501ZM0.969595 17.0948V6.17029H4.71959V17.0948H0.969595ZM6.7973 17.0948H10.5473V10.9947C10.5473 10.6131 10.5923 10.3187 10.6824 10.1116C10.8401 9.74091 11.0794 9.42745 11.4003 9.17125C11.7213 8.91503 12.1239 8.78693 12.6081 8.78693C13.8694 8.78693 14.5 9.61008 14.5 11.2564V17.0948H18.25V10.8312C18.25 9.21758 17.8559 7.99376 17.0676 7.15971C16.2793 6.32565 15.2376 5.90862 13.9426 5.90862C12.4899 5.90862 11.3581 6.51372 10.5473 7.72392V7.75663H10.5304L10.5473 7.72392V6.17029H6.7973C6.81981 6.51917 6.83108 7.60398 6.83108 9.42474C6.83108 11.2455 6.81981 13.8021 6.7973 17.0948Z" fill="white"/>
</svg>
