<svg width="85" height="84" viewBox="0 0 85 84" fill="none" xmlns="http://www.w3.org/2000/svg">
<g clip-path="url(#clip0_672_1302)">
<path d="M0.630859 21.2178V62.7846H43.0824L84.6309 21.2178H0.630859ZM12.0627 28.9563H12.0759C15.0972 28.9563 18.7749 29.8068 21.4392 31.1718L18.5701 36.1776C15.6432 34.7575 14.1811 34.6341 12.5142 34.537C10.0389 34.4005 8.79461 35.2904 8.76573 36.2459C8.75261 37.4114 11.1177 38.4614 13.3464 39.1859C16.709 40.2543 21.0009 41.6875 21.6597 45.8324L27.8259 29.5364H34.9869L42.2082 49.0454L42.1794 29.5364H50.477C58.3809 29.5364 62.0979 32.2139 62.0979 38.3538C62.0979 43.8636 58.2864 47.1606 51.8184 47.1606H49.1514L49.112 54.487L36.5619 54.4739L35.6877 51.2898C34.2971 51.7431 32.8427 51.97 31.3801 51.9618C29.8761 51.9708 28.3806 51.7359 26.9517 51.2661L25.7049 54.4765L18.704 54.4896L19.019 52.8753C18.9174 52.9668 18.8124 53.0544 18.704 53.1378C16.8455 54.6393 14.4804 55.3401 11.5824 55.3926H10.829C7.66541 55.4294 4.54985 54.6172 1.80686 53.0406L4.36098 47.9691C7.12248 49.6098 8.86286 49.9641 11.1991 49.9248C12.4145 49.8959 13.2886 49.6754 13.8635 49.0874C14.2049 48.7398 14.4011 48.2751 14.4121 47.788C14.4357 46.4755 12.551 45.8639 10.2672 45.1499C8.40873 44.575 6.28773 43.7849 4.64711 42.5669C2.69411 41.1468 1.74911 39.3408 1.80423 36.7998C1.81748 34.9999 2.52786 33.2752 3.78611 31.9881C5.60523 30.1008 8.53211 28.9641 12.0601 28.9641L12.0627 28.9563ZM49.1382 34.7943V41.4696H50.9731C53.3907 41.4696 55.3332 40.6611 55.3332 38.0913C55.3332 35.6028 53.3907 34.7943 50.9731 34.7943H49.1382ZM31.3355 37.4875L28.7236 45.7431C29.5671 46.0583 30.4613 46.2158 31.3617 46.2078C32.3067 46.2078 33.1966 46.0424 33.9579 45.7694L31.388 37.4718L31.3355 37.4875Z" fill="white"/>
</g>
<defs>
<clipPath id="clip0_672_1302">
<rect width="84" height="84" fill="white" transform="translate(0.630859)"/>
</clipPath>
</defs>
</svg>
