<svg width="143" height="36" viewBox="0 0 143 36" fill="none" xmlns="http://www.w3.org/2000/svg">
<g clip-path="url(#clip0_672_1304)">
<path d="M61.3084 20.5873H70.7278L65.8051 12.6793L56.6638 26.9709H52.4453L63.5568 9.76497C63.8486 9.48463 64.1681 9.23544 64.5153 9.0174L64.5389 9.00572C64.9093 8.78152 65.3351 8.66231 65.7696 8.66113H65.8051C66.2103 8.6657 66.6053 8.78754 66.9411 9.01156L66.9352 9.00572C67.2888 9.22393 67.618 9.47843 67.9173 9.76497L79.0288 26.9709H74.8103L72.84 23.782H63.4207L61.3084 20.5873ZM104.329 23.782V8.93563H100.814V25.2246C100.814 25.4582 100.863 25.6762 100.962 25.8787L100.956 25.867C101.067 26.0716 101.209 26.2586 101.376 26.4219C101.475 26.6117 101.642 26.7592 101.844 26.8365C102.085 26.9232 102.344 26.9705 102.601 26.9767H118.647L120.617 23.7878L104.329 23.782ZM46.2623 21.002H46.3511C48.0137 21.002 49.5224 20.342 50.6229 19.2673C51.1991 18.7378 51.6587 18.0969 51.9732 17.3846C52.2877 16.6722 52.4504 15.9036 52.4512 15.1265V14.8695C52.4489 14.0832 52.2858 13.3054 51.9716 12.5828C51.6575 11.8603 51.1987 11.2077 50.6229 10.6644C50.0611 10.1125 49.3947 9.67532 48.6618 9.3777C47.9288 9.08007 47.1437 8.92787 46.3511 8.92979H30.7903V26.9709H34.3225V12.1245H46.0789C46.8718 12.1245 47.5818 12.4457 48.0965 12.9597C48.3639 13.2199 48.5764 13.53 48.7216 13.8718C48.8669 14.2137 48.942 14.5806 48.9426 14.9513V15.0447V15.0389C48.9364 15.7924 48.6353 16.5143 48.1024 17.0538C47.846 17.3397 47.5307 17.5682 47.1777 17.7243C46.8247 17.8804 46.4421 17.9605 46.0553 17.9591H35.9969L46.5404 26.9825H51.5992L44.5643 21.0136L46.2623 21.002ZM9.14118 26.9709H9.09384C6.60884 26.9709 4.36051 25.9605 2.75118 24.3368C1.88342 23.5362 1.19228 22.5674 0.720933 21.4912C0.249586 20.4149 0.00816657 19.2543 0.0117582 18.0817V17.8189C0.0117582 15.3543 1.06492 13.1349 2.75118 11.5697L2.75709 11.5638C3.58414 10.7294 4.57178 10.0665 5.66201 9.61419C6.75224 9.16186 7.92306 8.92916 9.10567 8.92979H19.9864C22.4655 8.92979 24.702 9.94018 26.3054 11.5638C27.9562 13.1466 28.9738 15.3543 28.9738 17.8014V17.9532V18.0817C28.9738 20.5347 27.9443 22.7482 26.2936 24.331C25.4741 25.1672 24.4921 25.8316 23.4062 26.2842C22.3204 26.7368 21.1532 26.9684 19.9746 26.965H19.8208L9.14118 26.9709ZM19.5545 23.782H19.6965C20.4593 23.7839 21.2142 23.6308 21.9145 23.3324C22.6148 23.034 23.2454 22.5966 23.7672 22.0474C24.8459 20.9763 25.452 19.5278 25.4534 18.0175V17.8014C25.4528 17.057 25.3036 16.3199 25.0142 15.6325C24.7249 14.945 24.3011 14.3206 23.7672 13.7949C23.2346 13.2678 22.602 12.8495 21.9056 12.5639C21.2091 12.2783 20.4625 12.1309 19.7083 12.1303H19.5427H9.35418C7.82416 12.1318 6.35673 12.7301 5.27168 13.7949C4.71735 14.3127 4.27567 14.9366 3.97356 15.6284C3.67144 16.3202 3.51522 17.0655 3.51443 17.8189V17.9649V17.9591V18C3.51389 18.7573 3.66879 19.5069 3.96979 20.2036C4.27079 20.9002 4.71165 21.5294 5.26576 22.0532C5.79592 22.6013 6.43312 23.0375 7.13887 23.3356C7.84462 23.6338 8.60427 23.7876 9.37192 23.7878H9.41334L19.5545 23.782ZM86.3359 26.9709H86.188C83.7089 26.9709 81.4724 25.9605 79.869 24.3368C79.0219 23.5279 78.3488 22.5585 77.8903 21.4867C77.4318 20.4149 77.1972 19.2627 77.2006 18.0993V17.8072C77.2006 15.3601 78.2242 13.1524 79.869 11.5697C80.6885 10.7334 81.6706 10.0691 82.7564 9.61648C83.8422 9.16387 85.0094 8.93229 86.188 8.93563H86.3418H86.3359H98.9858L96.8735 12.1245H86.3951C84.8651 12.1259 83.3977 12.7242 82.3126 13.789C81.7583 14.3069 81.3166 14.9307 81.0145 15.6226C80.7124 16.3144 80.5561 17.0597 80.5553 17.8131V17.9591V17.9532V17.9941C80.5548 18.7515 80.7097 19.5011 81.0107 20.1977C81.3117 20.8943 81.7526 21.5236 82.3067 22.0474C82.8368 22.5954 83.474 23.0317 84.1798 23.3298C84.8855 23.6279 85.6452 23.7818 86.4128 23.782H99.2343L97.122 26.9709H86.3359ZM129.214 23.782H129.167C127.892 23.7879 126.658 23.3424 125.688 22.5263L125.694 22.5321C124.713 21.7513 123.984 20.7064 123.593 19.5243L123.581 19.4776H138.622L140.592 16.2887H123.581C123.966 15.0739 124.694 14.0635 125.658 13.3335L125.67 13.3218C126.654 12.5554 127.872 12.1397 129.125 12.142H139.598L141.71 8.95316H128.912C126.433 8.95316 124.197 9.96355 122.593 11.5872C121.746 12.3961 121.073 13.3655 120.615 14.4373C120.156 15.5091 119.921 16.6613 119.925 17.8248V17.9766V17.9708V18.1168C119.925 20.5639 120.948 22.7716 122.593 24.3544C124.197 25.9838 126.433 26.9884 128.912 26.9884H129.066H139.87L141.982 23.7995L129.214 23.782Z" fill="white"/>
</g>
<defs>
<clipPath id="clip0_672_1304">
<rect width="142" height="36" fill="white" transform="translate(0.257812)"/>
</clipPath>
</defs>
</svg>
