<svg width="160" height="48" viewBox="0 0 160 48" fill="none" xmlns="http://www.w3.org/2000/svg">
<g clip-path="url(#clip0_672_1307)">
<mask id="mask0_672_1307" style="mask-type:luminance" maskUnits="userSpaceOnUse" x="0" y="0" width="37" height="48">
<path d="M20.8184 1.99607C20.8184 0.893754 21.7122 0 22.8145 0H34.7912C35.8935 0 36.7872 0.893754 36.7872 1.99607V45.9105C36.7872 47.0128 35.8935 47.9064 34.7912 47.9064H2.85349C1.75118 47.9064 0.857422 47.0128 0.857422 45.9103V25.9495C0.857422 24.847 1.75118 23.9534 2.85349 23.9534H10.8381V13.9728C10.8381 12.8703 11.7317 11.9766 12.8341 11.9766H20.8184V1.99607Z" fill="white"/>
</mask>
<g mask="url(#mask0_672_1307)">
<path d="M36.7872 0V47.9064H20.8184V0H36.7872Z" fill="white"/>
</g>
<mask id="mask1_672_1307" style="mask-type:luminance" maskUnits="userSpaceOnUse" x="0" y="0" width="37" height="48">
<path d="M20.8184 1.99607C20.8184 0.893754 21.7122 0 22.8145 0H34.7912C35.8935 0 36.7872 0.893754 36.7872 1.99607V45.9105C36.7872 47.0128 35.8935 47.9064 34.7912 47.9064H2.85349C1.75118 47.9064 0.857422 47.0128 0.857422 45.9103V25.9495C0.857422 24.847 1.75118 23.9534 2.85349 23.9534H10.8381V13.9728C10.8381 12.8703 11.7317 11.9766 12.8341 11.9766H20.8184V1.99607Z" fill="white"/>
</mask>
<g mask="url(#mask1_672_1307)">
<path d="M26.8069 14.1728V48.1066H10.8379V12.1768H24.8107C25.913 12.1768 26.8067 13.0704 26.8067 14.1728" fill="black" fill-opacity="0.2"/>
</g>
<mask id="mask2_672_1307" style="mask-type:luminance" maskUnits="userSpaceOnUse" x="0" y="0" width="37" height="48">
<path d="M20.8184 1.99607C20.8184 0.893754 21.7122 0 22.8145 0H34.7912C35.8935 0 36.7872 0.893754 36.7872 1.99607V45.9105C36.7872 47.0128 35.8935 47.9064 34.7912 47.9064H2.85349C1.75118 47.9064 0.857422 47.0128 0.857422 45.9103V25.9495C0.857422 24.847 1.75118 23.9534 2.85349 23.9534H10.8381V13.9728C10.8381 12.8703 11.7317 11.9766 12.8341 11.9766H20.8184V1.99607Z" fill="white"/>
</mask>
<g mask="url(#mask2_672_1307)">
<path d="M26.8069 14.9708V48.9044H10.8379V12.9746H24.8107C25.913 12.9746 26.8067 13.8684 26.8067 14.9708" fill="black" fill-opacity="0.18"/>
</g>
<mask id="mask3_672_1307" style="mask-type:luminance" maskUnits="userSpaceOnUse" x="0" y="0" width="37" height="48">
<path d="M20.8184 1.99607C20.8184 0.893754 21.7122 0 22.8145 0H34.7912C35.8935 0 36.7872 0.893754 36.7872 1.99607V45.9105C36.7872 47.0128 35.8935 47.9064 34.7912 47.9064H2.85349C1.75118 47.9064 0.857422 47.0128 0.857422 45.9103V25.9495C0.857422 24.847 1.75118 23.9534 2.85349 23.9534H10.8381V13.9728C10.8381 12.8703 11.7317 11.9766 12.8341 11.9766H20.8184V1.99607Z" fill="white"/>
</mask>
<g mask="url(#mask3_672_1307)">
<path d="M26.8069 13.9728V47.9064H10.8379V11.9766H24.8107C25.913 11.9766 26.8067 12.8703 26.8067 13.9728" fill="white"/>
</g>
<mask id="mask4_672_1307" style="mask-type:luminance" maskUnits="userSpaceOnUse" x="0" y="0" width="37" height="48">
<path d="M20.8184 1.99607C20.8184 0.893754 21.7122 0 22.8145 0H34.7912C35.8935 0 36.7872 0.893754 36.7872 1.99607V45.9105C36.7872 47.0128 35.8935 47.9064 34.7912 47.9064H2.85349C1.75118 47.9064 0.857422 47.0128 0.857422 45.9103V25.9495C0.857422 24.847 1.75118 23.9534 2.85349 23.9534H10.8381V13.9728C10.8381 12.8703 11.7317 11.9766 12.8341 11.9766H20.8184V1.99607Z" fill="white"/>
</mask>
<g mask="url(#mask4_672_1307)">
<path d="M0.857422 23.9531V47.9062H16.8263V25.9493C16.8263 24.8469 15.9325 23.9533 14.8302 23.9533L0.857422 23.9531Z" fill="white"/>
</g>
</g>
<path d="M49.8924 13.7079H57.2402C58.8521 13.7079 60.1999 13.8601 61.2835 14.1646C62.376 14.4601 63.2402 15.1094 63.876 16.1123C64.5118 17.1064 64.8297 18.2213 64.8297 19.4571C64.8297 21.4452 64.1984 22.9541 62.9357 23.984C61.673 25.0138 59.8462 25.5288 57.4551 25.5288H52.4984V33.4004H49.8924V13.7079ZM52.4984 23.1914H57.482C59.1566 23.1914 60.3477 22.878 61.0551 22.2511C61.7715 21.6243 62.1297 20.7198 62.1297 19.5377C62.1297 18.7497 61.9327 18.0511 61.5387 17.4422C61.1447 16.8332 60.6432 16.4482 60.0342 16.287C59.4342 16.1258 58.5656 16.0452 57.4283 16.0452H52.4984V23.1914ZM73.682 18.8258C75.7148 18.8258 77.3357 19.475 78.5447 20.7735C79.7626 22.072 80.3715 23.9079 80.3715 26.281C80.3715 28.6452 79.7626 30.481 78.5447 31.7885C77.3357 33.087 75.7148 33.7362 73.682 33.7362C71.6581 33.7362 70.0372 33.087 68.8193 31.7885C67.6103 30.481 67.0059 28.6452 67.0059 26.281C67.0059 23.9079 67.6103 22.072 68.8193 20.7735C70.0372 19.475 71.6581 18.8258 73.682 18.8258ZM73.682 31.7482C74.8909 31.7482 75.8715 31.2914 76.6238 30.378C77.376 29.4556 77.7521 28.0899 77.7521 26.281C77.7521 24.4631 77.376 23.0974 76.6238 22.184C75.8715 21.2616 74.8909 20.8004 73.682 20.8004C72.473 20.8004 71.4924 21.2616 70.7402 22.184C69.988 23.0974 69.6118 24.4631 69.6118 26.281C69.6118 28.0899 69.988 29.4556 70.7402 30.378C71.4924 31.2914 72.473 31.7482 73.682 31.7482ZM101.072 19.1482L96.7864 33.4004H94.3685L91.279 22.9228L88.2029 33.4004H85.785L81.4865 19.1482H84.2939L86.9133 30.0153L90.1238 19.1482H92.4342L95.6581 30.0153L98.2775 19.1482H101.072ZM109.158 33.7362C107.063 33.7362 105.379 33.0825 104.107 31.775C102.836 30.4586 102.2 28.6273 102.2 26.281C102.2 23.9526 102.813 22.1302 104.04 20.8138C105.276 19.4885 106.888 18.8258 108.876 18.8258C110.909 18.8258 112.53 19.475 113.739 20.7735C114.957 22.072 115.566 23.9079 115.566 26.281V26.8855H104.833C104.94 28.5332 105.392 29.7556 106.189 30.5526C106.995 31.3496 107.985 31.7482 109.158 31.7482C110.045 31.7482 110.842 31.5243 111.549 31.0765C112.266 30.6198 112.642 29.975 112.677 29.1422H115.297C115.1 30.6108 114.433 31.7437 113.295 32.5407C112.167 33.3377 110.788 33.7362 109.158 33.7362ZM112.892 24.8974C112.686 23.5273 112.225 22.5019 111.509 21.8213C110.792 21.1407 109.915 20.8004 108.876 20.8004C107.864 20.8004 106.995 21.1407 106.27 21.8213C105.545 22.4929 105.083 23.5183 104.886 24.8974H112.892ZM125.815 21.4586C125.457 21.3511 124.942 21.2974 124.27 21.2974C122.98 21.2974 121.874 21.9735 120.952 23.3258V33.4004H118.413V19.1482H120.952V21.1362C122.018 19.5959 123.254 18.8258 124.66 18.8258C125.018 18.8258 125.403 18.8616 125.815 18.9332V21.4586ZM149.94 27.678C149.94 29.5228 149.313 30.9377 148.06 31.9228C146.806 32.9079 144.983 33.4004 142.592 33.4004H135.218V13.7079H142.23C144.325 13.7079 145.973 14.1556 147.173 15.0511C148.373 15.9467 148.973 17.1735 148.973 18.7317C148.973 20.6302 148.028 22.0362 146.139 22.9496C147.41 23.272 148.36 23.8676 148.986 24.7362C149.622 25.5959 149.94 26.5765 149.94 27.678ZM137.824 21.9556H142.203C143.645 21.9556 144.706 21.7273 145.386 21.2705C146.067 20.8049 146.407 20.0347 146.407 18.9601C146.407 17.9929 146.076 17.2676 145.413 16.784C144.751 16.2914 143.6 16.0452 141.961 16.0452H137.824V21.9556ZM137.824 31.0631H142.566C145.682 31.0631 147.24 29.9347 147.24 27.678C147.24 26.5049 146.877 25.6496 146.152 25.1123C145.436 24.5661 144.128 24.2929 142.23 24.2929H137.824V31.0631ZM156.509 33.4004H153.889V13.7079H156.509V33.4004Z" fill="white"/>
<defs>
<clipPath id="clip0_672_1307">
<rect width="35.93" height="48" fill="white" transform="translate(0.857422)"/>
</clipPath>
</defs>
</svg>
