<svg width="99" height="80" viewBox="0 0 99 80" fill="none" xmlns="http://www.w3.org/2000/svg">
<g clip-path="url(#clip0_672_1299)">
<path d="M38.435 38.4015H34.4001C34.5058 37.6053 34.9085 36.2228 36.4888 36.2228C37.5224 36.2228 38.3217 36.8122 38.435 38.4015ZM59.3611 36.2598C59.2891 36.2598 57.2005 35.9867 57.2005 39.3458C57.2005 42.7048 59.2876 42.4317 59.3611 42.4317C61.3517 42.4317 61.5216 40.3425 61.5216 39.3458C61.5216 35.9883 59.43 36.2598 59.3611 36.2598ZM22.118 39.9259C21.9502 40.0586 21.8167 40.2301 21.729 40.426C21.6412 40.6219 21.6019 40.8362 21.6142 41.0508C21.6142 41.7883 21.9327 41.9843 22.118 42.1386C22.8377 42.7095 24.4256 42.4657 25.3229 42.2851V39.6713C24.5083 39.5063 22.7611 39.3689 22.118 39.9259ZM98.3237 36.2969C98.3237 49.8102 86.0737 60.1188 73.003 57.3476C70.1901 62.4394 62.1724 68.2641 52.7598 63.771C46.4572 78.5912 25.5204 77.9941 20.0202 62.9733C1.68805 66.6594 -7.36164 41.6232 8.49446 32.225C3.17336 19.9692 11.9612 5.4375 25.9982 5.4375C28.9173 5.43933 31.7968 6.11802 34.4139 7.42105C37.0309 8.72407 39.3153 10.6165 41.0902 12.9518C44.2599 9.6498 48.6546 7.58068 53.5163 7.58068C59.9996 7.58068 65.6131 11.2097 68.645 16.6179C82.8581 10.3411 98.3237 20.9737 98.3237 36.2969ZM18.7676 41.2035C18.7676 39.389 16.9776 38.8628 16.0313 38.5542C15.2243 38.2287 13.9779 38.0127 13.9779 37.1748C13.9779 35.7152 16.581 36.1472 17.832 36.8477C17.832 36.8477 18.0112 36.9573 18.0831 36.7752C18.1199 36.6672 18.4445 35.7599 18.4797 35.6504C18.4935 35.6072 18.4899 35.5603 18.4699 35.5197C18.4499 35.4791 18.415 35.4479 18.3726 35.4328C16.4845 34.2555 12.1404 34.1197 12.1404 37.3924C12.1404 39.3149 13.8998 39.7747 14.8782 40.0417C15.601 40.2854 16.8949 40.5046 16.8949 41.384C16.8949 42.0012 16.3544 42.4734 15.4907 42.4734C14.4414 42.4716 13.4209 42.1279 12.5814 41.4936C12.5094 41.4581 12.3639 41.384 12.3287 41.6031L11.9612 42.7557C11.8892 42.9008 11.9964 42.9378 11.9964 42.9733C12.2644 43.1893 13.5736 43.9901 15.4907 43.9901C17.5074 43.9901 18.7676 42.9008 18.7676 41.1958V41.2035ZM23.6676 34.6336C22.1165 34.6336 20.8103 35.1227 20.3907 35.4328C20.374 35.4445 20.3597 35.4595 20.3487 35.4768C20.3378 35.4942 20.3303 35.5135 20.3269 35.5338C20.3235 35.5541 20.3241 35.5748 20.3288 35.5948C20.3334 35.6149 20.342 35.6337 20.354 35.6504L20.7506 36.7397C20.7614 36.7775 20.7861 36.8098 20.8196 36.8299C20.8532 36.8499 20.8932 36.8563 20.9313 36.8477C21.0308 36.8477 21.9725 36.2305 23.5237 36.2305C24.1362 36.2305 24.6047 36.3401 24.9294 36.5947C25.4806 37.0267 25.3979 37.8738 25.3979 38.2271C24.6645 38.1808 22.4717 37.6964 20.8945 38.8073C20.535 39.0558 20.2435 39.3916 20.047 39.7838C19.8506 40.1759 19.7555 40.6117 19.7706 41.0508C19.7706 41.9611 20.0018 42.6555 20.7797 43.2649C22.6539 44.524 26.3351 43.5735 26.6137 43.4825C26.8557 43.4331 27.1543 43.3806 27.1543 43.1924V37.9648C27.1604 37.2535 27.2033 34.6258 23.6661 34.6258L23.6676 34.6336ZM30.7956 31.3964C30.7972 31.3721 30.7936 31.3477 30.785 31.3249C30.7765 31.3021 30.7633 31.2814 30.7462 31.2641C30.7291 31.2469 30.7085 31.2335 30.6859 31.225C30.6632 31.2164 30.639 31.2127 30.6149 31.2143H29.1112C29.0872 31.213 29.0632 31.2168 29.0407 31.2255C29.0183 31.2341 28.9979 31.2475 28.981 31.2647C28.964 31.282 28.9509 31.3026 28.9425 31.3253C28.9341 31.348 28.9305 31.3722 28.9321 31.3964V43.5859C28.9305 43.61 28.9341 43.6343 28.9425 43.657C28.9509 43.6797 28.964 43.7003 28.981 43.7175C28.9979 43.7347 29.0183 43.7481 29.0407 43.7568C29.0632 43.7655 29.0872 43.7693 29.1112 43.7679H30.6241C30.6482 43.7695 30.6724 43.7659 30.6951 43.7573C30.7177 43.7487 30.7382 43.7354 30.7553 43.7181C30.7725 43.7009 30.7857 43.6802 30.7942 43.6574C30.8028 43.6346 30.8063 43.6102 30.8048 43.5859L30.7956 31.3964ZM39.3323 35.8602C39.0107 35.5038 38.2926 34.6984 36.6296 34.6984C36.0922 34.6984 34.4614 34.7339 33.46 36.0778C32.4876 37.2551 32.4524 38.8721 32.4524 39.3813C32.4524 39.8627 32.4754 41.5815 33.5335 42.6477C33.9377 43.0967 34.9208 43.9176 37.0262 43.9176C38.6831 43.9176 39.5482 43.555 39.8713 43.3374C39.9433 43.3004 39.98 43.2279 39.9081 43.0474L39.5482 41.9935C39.5297 41.9535 39.4983 41.921 39.4591 41.9014C39.4198 41.8817 39.3751 41.8761 39.3323 41.8855C38.9357 42.0306 38.36 42.3206 36.991 42.3206C34.3236 42.3206 34.4109 40.0463 34.3971 39.7439H40.0887C40.1303 39.743 40.1704 39.7283 40.2028 39.7021C40.2352 39.6758 40.2581 39.6395 40.2679 39.5988C40.2235 39.5988 40.5849 37.3307 39.3354 35.8602H39.3323ZM44.9505 43.9901C46.9671 43.9901 48.2289 42.9008 48.2289 41.1958C48.2289 39.3813 46.4373 38.8551 45.491 38.5465C44.8571 38.2904 43.4376 38.025 43.4376 37.1671C43.4376 36.587 43.9414 36.1873 44.7346 36.1873C45.6252 36.2053 46.5 36.4286 47.2917 36.84C47.2917 36.84 47.4724 36.9496 47.5444 36.7675C47.5796 36.6595 47.9042 35.7522 47.9395 35.6427C47.9532 35.5995 47.9497 35.5526 47.9296 35.512C47.9096 35.4714 47.8747 35.4402 47.8323 35.4251C46.6211 34.669 45.269 34.6629 44.7346 34.6629C42.8971 34.6629 41.6016 35.7877 41.6016 37.3847C41.6016 39.3072 43.3595 39.767 44.338 40.0339C45.2736 40.3425 46.3546 40.537 46.3546 41.3763C46.3546 41.9935 45.8156 42.4657 44.9505 42.4657C43.9012 42.4635 42.8808 42.1198 42.0411 41.4859C42.0193 41.4671 41.9928 41.4548 41.9645 41.4505C41.9361 41.4461 41.9072 41.4498 41.8808 41.4612C41.8545 41.4727 41.8319 41.4913 41.8156 41.515C41.7992 41.5387 41.7898 41.5666 41.7884 41.5954L41.4286 42.7557C41.3566 42.9008 41.4638 42.9378 41.4638 42.9733C41.7272 43.1893 43.0456 43.9901 44.9535 43.9901H44.9505ZM55.0031 35.0625C55.0031 34.953 54.9664 34.8804 54.8224 34.8804H53.0217C53.0217 34.8588 53.1656 33.501 53.7061 32.9564C54.3431 32.316 55.5069 32.7033 55.5436 32.7033C55.7228 32.7758 55.7596 32.7033 55.7948 32.6308L56.2281 31.4319C56.3353 31.2869 56.2281 31.2514 56.1914 31.2143C55.412 30.9057 53.5346 30.7715 52.4459 31.8686C51.6068 32.7141 51.3741 34.0164 51.2209 34.8804H49.924C49.8775 34.8843 49.8339 34.9048 49.8011 34.9382C49.7682 34.9716 49.7483 35.0156 49.7448 35.0625L49.5274 36.2598C49.5274 36.3679 49.5641 36.4404 49.7081 36.4404H50.9683C49.6652 43.8312 49.6284 44.1876 49.3834 45.0069C49.2181 45.5655 48.8797 46.0716 48.4831 46.2043C48.4693 46.2043 47.8889 46.4635 47.0069 46.1673C47.0069 46.1673 46.863 46.0947 46.791 46.2768C46.7543 46.3863 46.3944 47.3291 46.3577 47.4387C46.3209 47.5482 46.3577 47.6562 46.4296 47.6562C47.2121 47.9648 48.4203 47.9293 49.1675 47.6562C50.1292 47.3044 50.6559 46.4388 50.9331 45.6596C51.3541 44.47 51.3633 44.149 52.7338 36.4419H54.6065C54.6532 36.4381 54.6969 36.4176 54.73 36.3843C54.7631 36.3509 54.7834 36.3068 54.7872 36.2598L55.0031 35.0625ZM63.1785 37.5313C63.0927 37.272 62.3975 34.7369 59.3243 34.7369C56.9891 34.7369 55.8024 36.2799 55.4717 37.5313C55.3186 37.9941 54.9847 39.6914 55.4717 41.1603C55.4855 41.2066 56.147 43.9562 59.3243 43.9562C61.6135 43.9562 62.8309 42.4734 63.1785 41.1603C63.67 39.6775 63.3331 37.9941 63.1785 37.5313ZM70.1303 34.9545C69.3647 34.6999 67.5854 34.6613 66.7447 35.7892V35.0995C66.7461 35.0753 66.7423 35.0511 66.7337 35.0285C66.7251 35.0059 66.7118 34.9854 66.6947 34.9683C66.6776 34.9512 66.6572 34.938 66.6346 34.9295C66.6121 34.921 66.5881 34.9174 66.5641 34.919H65.1247C65.1007 34.9174 65.0766 34.921 65.0541 34.9295C65.0316 34.938 65.0111 34.9512 64.994 34.9683C64.9769 34.9854 64.9637 35.0059 64.955 35.0285C64.9464 35.0511 64.9426 35.0753 64.944 35.0995V43.6291C64.9427 43.6533 64.9464 43.6776 64.955 43.7003C64.9636 43.723 64.9769 43.7436 64.994 43.7608C65.011 43.778 65.0315 43.7913 65.054 43.8C65.0765 43.8087 65.1006 43.8125 65.1247 43.8111H66.6008C66.6249 43.8125 66.649 43.8087 66.6715 43.8C66.694 43.7913 66.7145 43.778 66.7315 43.7608C66.7486 43.7436 66.7618 43.723 66.7704 43.7003C66.7791 43.6776 66.7828 43.6533 66.7815 43.6291V39.3442C66.7815 38.8952 66.7891 37.5899 67.4644 37.0221C68.2147 36.266 69.3019 36.5036 69.5178 36.5499C69.5638 36.5491 69.6086 36.535 69.6469 36.5093C69.6851 36.4836 69.7153 36.4473 69.7337 36.4049C69.9135 36.0029 70.0699 35.5907 70.2023 35.1705C70.2175 35.1315 70.2186 35.0883 70.2054 35.0486C70.1923 35.0088 70.1657 34.975 70.1303 34.953V34.9545ZM77.2981 43.302L76.9735 42.1771C76.9015 41.9951 76.7576 42.0676 76.7576 42.0676C76.1099 42.3484 75.2034 42.3592 75.0288 42.3592C74.3183 42.3592 72.3997 42.1848 72.3997 39.3103C72.3997 38.349 72.6829 36.2614 74.9216 36.2614C75.5196 36.2462 76.1159 36.3322 76.6856 36.516C76.6856 36.516 76.8296 36.5885 76.8663 36.4064C77.0102 36.0068 77.1174 35.7167 77.2629 35.2446C77.2981 35.0995 77.1909 35.064 77.1542 35.064C75.3795 34.4669 73.7334 34.6737 72.9034 35.064C72.66 35.1782 70.4182 36.0654 70.4182 39.3103C70.4182 39.7578 70.3294 43.9562 74.8496 43.9562C75.6613 43.9544 76.4661 43.8065 77.2262 43.5195C77.2591 43.4949 77.2837 43.4607 77.2965 43.4214C77.3094 43.3822 77.31 43.34 77.2981 43.3004V43.302ZM85.547 37.2041C85.4245 36.7413 84.7247 34.6999 82.1246 34.6999C79.6746 34.6999 78.5231 36.2598 78.1985 37.5683C78.0219 38.1564 77.9367 38.7685 77.9458 39.3828C77.9458 43.3745 80.8307 43.9191 82.5212 43.9191C84.178 43.9191 85.0416 43.5565 85.3663 43.339C85.4382 43.302 85.475 43.2294 85.403 43.0489L85.0416 41.9951C85.0232 41.955 84.9917 41.9225 84.9525 41.9029C84.9133 41.8833 84.8685 41.8777 84.8257 41.8871C84.4291 42.0321 83.8534 42.3222 82.4845 42.3222C79.817 42.3222 79.9043 40.0478 79.8921 39.7454H85.5822C85.6239 39.7444 85.6641 39.7296 85.6967 39.7035C85.7293 39.6773 85.7525 39.6411 85.7629 39.6004C85.7261 39.5988 85.9068 38.5095 85.547 37.2026V37.2041ZM81.9807 36.2244C80.3989 36.2244 79.9901 37.613 79.8921 38.403H83.93C83.7952 36.5638 82.7631 36.2228 81.9807 36.2228V36.2244Z" fill="white"/>
</g>
<defs>
<clipPath id="clip0_672_1299">
<rect width="98" height="79" fill="white" transform="translate(0.324219 0.5)"/>
</clipPath>
</defs>
</svg>
