<svg width="28" height="28" viewBox="0 0 28 28" fill="none" xmlns="http://www.w3.org/2000/svg">
<path d="M24.7717 27.0117H2.36766C1.74533 27.0117 1.30322 26.7444 1.04134 26.2097C0.779465 25.6749 0.823278 25.1582 1.17278 24.6593L8.19272 14.8015C8.46655 14.4032 8.81505 14.0985 9.23824 13.8874C9.66143 13.6763 10.122 13.5703 10.6198 13.5693H16.6316L25.1451 3.63682C25.5932 3.11406 26.1409 2.97067 26.7881 3.20666C27.4353 3.44265 27.7589 3.90965 27.7589 4.60766V24.0245C27.7589 24.846 27.4667 25.5495 26.8822 26.135C26.2977 26.7205 25.5942 27.0127 24.7717 27.0117ZM7.59528 10.5821L2.96511 17.1166C2.71617 17.4651 2.39256 17.6707 1.99426 17.7334C1.59597 17.7962 1.22257 17.7026 0.87406 17.4527C0.525553 17.2027 0.320431 16.8791 0.258696 16.4818C0.19696 16.0845 0.290061 15.7111 0.537999 15.3616L5.20551 8.86443C5.47934 8.46614 5.82785 8.15497 6.25103 7.93093C6.67422 7.70689 7.13475 7.59487 7.63262 7.59487H13.6444L19.6935 0.537592C19.9673 0.213978 20.3034 0.0397238 20.7016 0.0148304C21.0999 -0.010063 21.4609 0.114404 21.7845 0.388231C22.1081 0.662059 22.2824 0.998119 22.3073 1.39641C22.3322 1.79471 22.2077 2.15566 21.9339 2.47928L15.8848 9.53655C15.611 9.88506 15.2749 10.1464 14.8766 10.3207C14.4783 10.4949 14.0676 10.5821 13.6444 10.5821H7.59528Z" fill="white"/>
</svg>
