<svg width="30" height="23" viewBox="0 0 30 23" fill="none" xmlns="http://www.w3.org/2000/svg">
<path d="M27.0007 6.86393C25.0007 6.86393 23.934 8.7306 24.4673 10.1973L19.6673 14.9973C19.2673 14.8639 18.734 14.8639 18.334 14.9973L14.8673 11.5306C15.4007 10.0639 14.334 8.19727 12.334 8.19727C10.4673 8.19727 9.26732 10.0639 9.80065 11.5306L3.66732 17.5306C2.20065 17.1306 0.333984 18.1973 0.333984 20.1973C0.333984 21.6639 1.53398 22.8639 3.00065 22.8639C4.86732 22.8639 6.06732 20.9973 5.53398 19.5306L11.534 13.3973C11.934 13.5306 12.4673 13.5306 12.8673 13.3973L16.334 16.8639C15.934 18.1973 17.0007 20.1973 19.0007 20.1973C21.0007 20.1973 22.0673 18.3306 21.534 16.8639L26.334 12.0639C27.8007 12.4639 29.6673 11.3973 29.6673 9.5306C29.6673 8.06393 28.4673 6.86393 27.0007 6.86393ZM19.0007 8.19727L20.2007 5.39727L23.0007 4.19727L20.2007 2.99727L19.0007 0.197266L17.8007 2.99727L15.0007 4.19727L17.8007 5.39727L19.0007 8.19727ZM3.66732 10.8639L4.33398 8.19727L7.00065 7.5306L4.33398 6.86393L3.66732 4.19727L3.00065 6.86393L0.333984 7.5306L3.00065 8.19727L3.66732 10.8639Z" fill="white"/>
</svg>
