<svg width="26" height="23" viewBox="0 0 26 23" fill="none" xmlns="http://www.w3.org/2000/svg">
<path d="M24 0.53125H2C1.46957 0.53125 0.960859 0.741964 0.585786 1.11704C0.210714 1.49211 0 2.00082 0 2.53125V20.5312C0 21.0617 0.210714 21.5704 0.585786 21.9455C0.960859 22.3205 1.46957 22.5312 2 22.5312H24C24.5304 22.5312 25.0391 22.3205 25.4142 21.9455C25.7893 21.5704 26 21.0617 26 20.5312V2.53125C26 2.00082 25.7893 1.49211 25.4142 1.11704C25.0391 0.741964 24.5304 0.53125 24 0.53125ZM8.6 13.7313C8.81217 13.8904 8.95244 14.1273 8.98995 14.3898C9.02746 14.6524 8.95913 14.9191 8.8 15.1313C8.64087 15.3434 8.40397 15.4837 8.14142 15.5212C7.87887 15.5587 7.61217 15.4904 7.4 15.3312L3.4 12.3312C3.2758 12.2381 3.175 12.1173 3.10557 11.9785C3.03614 11.8396 3 11.6865 3 11.5312C3 11.376 3.03614 11.2229 3.10557 11.084C3.175 10.9452 3.2758 10.8244 3.4 10.7312L7.4 7.73125C7.61217 7.57212 7.87887 7.50379 8.14142 7.5413C8.40397 7.57881 8.64087 7.71908 8.8 7.93125C8.95913 8.14342 9.02746 8.41012 8.98995 8.67267C8.95244 8.93522 8.81217 9.17212 8.6 9.33125L5.66625 11.5312L8.6 13.7313ZM15.9613 4.80625L11.9613 18.8062C11.9272 18.9348 11.8678 19.0552 11.7866 19.1605C11.7054 19.2657 11.6041 19.3538 11.4885 19.4194C11.3728 19.4851 11.2453 19.527 11.1133 19.5428C10.9813 19.5585 10.8475 19.5478 10.7196 19.5113C10.5918 19.4747 10.4726 19.413 10.3689 19.3298C10.2652 19.2466 10.1791 19.1436 10.1157 19.0267C10.0523 18.9098 10.0129 18.7815 9.99964 18.6492C9.98642 18.5169 9.99972 18.3833 10.0387 18.2563L14.0387 4.25625C14.1156 4.00592 14.2876 3.79573 14.5178 3.67086C14.748 3.54598 15.018 3.51637 15.2697 3.5884C15.5215 3.66043 15.735 3.82834 15.8643 4.05606C15.9936 4.28378 16.0284 4.55314 15.9613 4.80625ZM22.6 12.3312L18.6 15.3312C18.3878 15.4904 18.1211 15.5587 17.8586 15.5212C17.596 15.4837 17.3591 15.3434 17.2 15.1313C17.0409 14.9191 16.9725 14.6524 17.01 14.3898C17.0476 14.1273 17.1878 13.8904 17.4 13.7313L20.3337 11.5312L17.4 9.33125C17.2949 9.25246 17.2064 9.15374 17.1395 9.04074C17.0726 8.92774 17.0286 8.80267 17.01 8.67267C16.9915 8.54267 16.9987 8.41028 17.0313 8.28307C17.0639 8.15586 17.1212 8.03631 17.2 7.93125C17.2788 7.82619 17.3775 7.73768 17.4905 7.67078C17.6035 7.60387 17.7286 7.55987 17.8586 7.5413C17.9886 7.52273 18.121 7.52994 18.2482 7.56254C18.3754 7.59513 18.4949 7.65246 18.6 7.73125L22.6 10.7312C22.7242 10.8244 22.825 10.9452 22.8944 11.084C22.9639 11.2229 23 11.376 23 11.5312C23 11.6865 22.9639 11.8396 22.8944 11.9785C22.825 12.1173 22.7242 12.2381 22.6 12.3312Z" fill="white"/>
</svg>
