<svg width="28" height="29" viewBox="0 0 28 29" fill="none" xmlns="http://www.w3.org/2000/svg">
<path d="M18.3268 28.5312C17.054 28.5334 15.825 28.0668 14.8743 27.2205V19.7815H18.374C19.0702 19.7815 19.7378 19.505 20.2301 19.0127C20.7223 18.5205 20.9989 17.8528 20.9989 17.1566V16.1329C21.5826 15.9265 22.0747 15.5204 22.388 14.9863C22.7013 14.4522 22.8157 13.8245 22.711 13.2142C22.6063 12.604 22.2892 12.0503 21.8158 11.6512C21.3424 11.2521 20.7431 11.0332 20.1239 11.0332C19.5047 11.0332 18.9055 11.2521 18.4321 11.6512C17.9587 12.0503 17.6416 12.604 17.5369 13.2142C17.4322 13.8245 17.5466 14.4522 17.8599 14.9863C18.1732 15.5204 18.6652 15.9265 19.249 16.1329V17.1566C19.249 17.3887 19.1568 17.6112 18.9927 17.7753C18.8286 17.9394 18.6061 18.0316 18.374 18.0316H14.8743V1.34066C15.4496 0.922799 16.1207 0.656331 16.826 0.565776C17.5312 0.475221 18.2479 0.563486 18.9101 0.822452C19.5723 1.08142 20.1588 1.50277 20.6155 2.04773C21.0723 2.5927 21.3846 3.24378 21.5238 3.94108L21.7426 5.03829L22.453 5.18003C23.5231 5.39468 24.4859 5.97319 25.1778 6.81727C25.8697 7.66135 26.248 8.71895 26.2485 9.81038V10.1569C26.2485 11.4273 25.7061 12.5718 24.8399 13.3715C25.8979 13.8958 26.7663 14.7366 27.3246 15.7771C27.8829 16.8175 28.1032 18.0061 27.9551 19.1776C27.8069 20.349 27.2976 21.4453 26.4978 22.314C25.6981 23.1827 24.6477 23.7808 23.4925 24.0251L23.4277 24.3489C23.1928 25.5286 22.556 26.5904 21.6258 27.353C20.6956 28.1157 19.5297 28.5321 18.3268 28.5312ZM10.6343 0.532191C11.5652 0.532191 12.4244 0.83143 13.1244 1.34066V7.53195H12.1007C11.8943 6.94816 11.4882 6.45613 10.9541 6.14282C10.42 5.82952 9.79239 5.71511 9.18212 5.81982C8.57185 5.92452 8.01824 6.24161 7.61914 6.71503C7.22005 7.18845 7.00115 7.78772 7.00115 8.40692C7.00115 9.02613 7.22005 9.6254 7.61914 10.0988C8.01824 10.5722 8.57185 10.8893 9.18212 10.994C9.79239 11.0987 10.42 10.9843 10.9541 10.671C11.4882 10.3577 11.8943 9.86569 12.1007 9.28189H13.1244V27.2205C12.4398 27.8278 11.6072 28.2438 10.7105 28.4265C9.81375 28.6092 8.88473 28.5521 8.01715 28.261C7.14956 27.9699 6.37411 27.4551 5.76904 26.7685C5.16397 26.082 4.7507 25.2479 4.57093 24.3506L4.50619 24.0251C3.51509 23.8153 2.59811 23.3443 1.85016 22.661C1.10222 21.9777 0.550497 21.1069 0.252116 20.1387C-0.0462645 19.1705 -0.0804582 18.1402 0.153075 17.1544C0.386608 16.1686 0.879379 15.2631 1.58037 14.5317H7.87472C8.10677 14.5317 8.32931 14.6239 8.4934 14.788C8.65748 14.9521 8.74966 15.1746 8.74966 15.4067V16.4304C8.16589 16.6368 7.67387 17.0429 7.36058 17.577C7.04728 18.1111 6.93287 18.7388 7.03758 19.3491C7.14228 19.9594 7.45936 20.513 7.93276 20.9121C8.40617 21.3112 9.00542 21.5301 9.62461 21.5301C10.2438 21.5301 10.843 21.3112 11.3165 20.9121C11.7899 20.513 12.1069 19.9594 12.2116 19.3491C12.3163 18.7388 12.2019 18.1111 11.8886 17.577C11.5753 17.0429 11.0833 16.6368 10.4995 16.4304V15.4067C10.4995 14.7105 10.223 14.0429 9.73076 13.5506C9.2385 13.0583 8.57087 12.7818 7.87472 12.7818H2.62506C2.05712 12.0245 1.75011 11.1035 1.75011 10.1569V9.81038C1.75063 8.71895 2.12897 7.66135 2.82087 6.81727C3.51276 5.97319 4.47554 5.39468 5.54562 5.18003L6.25607 5.04004L6.47481 3.94108C6.66611 2.97907 7.18539 2.11331 7.94399 1.49159C8.7026 0.869883 9.65348 0.530782 10.6343 0.532191ZM9.62461 7.53195C9.85666 7.53195 10.0792 7.62414 10.2433 7.78823C10.4074 7.95232 10.4995 8.17487 10.4995 8.40692C10.4995 8.63898 10.4074 8.86153 10.2433 9.02562C10.0792 9.18971 9.85666 9.28189 9.62461 9.28189C9.39256 9.28189 9.17001 9.18971 9.00593 9.02562C8.84184 8.86153 8.74966 8.63898 8.74966 8.40692C8.74966 8.17487 8.84184 7.95232 9.00593 7.78823C9.17001 7.62414 9.39256 7.53195 9.62461 7.53195ZM9.62461 19.7815C9.85666 19.7815 10.0792 19.6894 10.2433 19.5253C10.4074 19.3612 10.4995 19.1386 10.4995 18.9066C10.4995 18.6745 10.4074 18.452 10.2433 18.2879C10.0792 18.1238 9.85666 18.0316 9.62461 18.0316C9.39256 18.0316 9.17001 18.1238 9.00593 18.2879C8.84184 18.452 8.74966 18.6745 8.74966 18.9066C8.74966 19.1386 8.84184 19.3612 9.00593 19.5253C9.17001 19.6894 9.39256 19.7815 9.62461 19.7815ZM20.1239 14.5317C20.356 14.5317 20.5785 14.4395 20.7426 14.2754C20.9067 14.1114 20.9989 13.8888 20.9989 13.6567C20.9989 13.4247 20.9067 13.2021 20.7426 13.038C20.5785 12.874 20.356 12.7818 20.1239 12.7818C19.8919 12.7818 19.6693 12.874 19.5053 13.038C19.3412 13.2021 19.249 13.4247 19.249 13.6567C19.249 13.8888 19.3412 14.1114 19.5053 14.2754C19.6693 14.4395 19.8919 14.5317 20.1239 14.5317Z" fill="white"/>
</svg>
