<svg width="30" height="30" viewBox="0 0 30 30" fill="none" xmlns="http://www.w3.org/2000/svg">
<path d="M23.6735 7.94993L22.7362 5.84442L20.6535 4.89693C20.5237 4.83712 20.4136 4.7408 20.3364 4.61947C20.2591 4.49814 20.2181 4.35691 20.2181 4.21264C20.2181 4.06837 20.2591 3.92715 20.3364 3.80582C20.4136 3.68448 20.5237 3.58816 20.6535 3.52835L22.7362 2.58087L23.6735 0.475353C23.7326 0.344068 23.8279 0.232761 23.9479 0.154709C24.0679 0.0766573 24.2076 0.0351562 24.3503 0.0351562C24.4931 0.0351562 24.6327 0.0766573 24.7528 0.154709C24.8728 0.232761 24.9681 0.344068 25.0272 0.475353L25.9645 2.58087L28.0472 3.52835C28.177 3.58816 28.2871 3.68448 28.3643 3.80582C28.4415 3.92715 28.4826 4.06837 28.4826 4.21264C28.4826 4.35691 28.4415 4.49814 28.3643 4.61947C28.2871 4.7408 28.177 4.83712 28.0472 4.89693L25.9645 5.84442L25.0272 7.94993C24.7743 8.53647 23.9412 8.53647 23.6735 7.94993ZM28.4935 15.0636L28.0174 13.9807C27.9582 13.8494 27.863 13.7381 27.743 13.6601C27.6229 13.582 27.4832 13.5405 27.3405 13.5405C27.1978 13.5405 27.0581 13.582 26.9381 13.6601C26.8181 13.7381 26.7228 13.8494 26.6636 13.9807L26.1876 15.0636L25.1016 15.5448C24.9717 15.6046 24.8616 15.701 24.7844 15.8223C24.7072 15.9436 24.6662 16.0848 24.6662 16.2291C24.6662 16.3734 24.7072 16.5146 24.7844 16.6359C24.8616 16.7573 24.9717 16.8536 25.1016 16.9134L26.1727 17.3947L26.6488 18.4925C26.7079 18.6238 26.8032 18.7351 26.9232 18.8132C27.0433 18.8912 27.1829 18.9327 27.3257 18.9327C27.4684 18.9327 27.6081 18.8912 27.7281 18.8132C27.8481 18.7351 27.9434 18.6238 28.0025 18.4925L28.4786 17.4097L29.5646 16.9284C29.6944 16.8686 29.8045 16.7723 29.8817 16.651C29.959 16.5296 30 16.3884 30 16.2442C30 16.0999 29.959 15.9587 29.8817 15.8373C29.8045 15.716 29.6944 15.6197 29.5646 15.5599L28.4935 15.0636ZM20.9957 17.5451L22.8255 18.9437C23.4206 19.3949 23.5842 20.2371 23.2123 20.8988L20.8023 25.1099C20.4304 25.7716 19.627 26.0423 18.9427 25.7415L16.8154 24.8392C16.5179 25.0347 16.1906 25.2302 15.8633 25.3956L15.5806 27.7117C15.4914 28.4637 14.8517 29.0352 14.1079 29.0352H9.30274C8.55891 29.0352 7.91922 28.4637 7.82996 27.7117L7.54731 25.3956C7.22002 25.2302 6.90762 25.0497 6.59521 24.8392L4.46786 25.7415C3.78354 26.0423 2.98021 25.7716 2.6083 25.1099L0.198301 20.8988C-0.173612 20.2371 -0.00997035 19.4099 0.585091 18.9437L2.4149 17.5451V16.9886C2.4149 16.8081 2.4149 16.6126 2.42978 16.4321L0.599967 15.0335C0.00490617 14.5823 -0.158736 13.7401 0.213178 13.0784L2.62318 8.86733C2.99509 8.2056 3.79842 7.93489 4.48274 8.23568L6.61009 9.13804C6.90762 8.94253 7.2349 8.74702 7.56218 8.58158L7.84484 6.26552C7.91922 5.52859 8.55891 4.95709 9.30274 4.95709H14.1079C14.8517 4.95709 15.4914 5.52859 15.5806 6.28056L15.8633 8.59662C16.1906 8.76206 16.503 8.94253 16.8154 9.15308L18.9427 8.25072C19.627 7.94993 20.4304 8.22064 20.8023 8.88237L23.2123 13.0934C23.5842 13.7551 23.4206 14.5823 22.8255 15.0485L20.9957 16.4472C21.0106 16.6277 21.0106 16.8081 21.0106 17.0036C21.0106 17.1992 21.0106 17.3646 20.9957 17.5451ZM16.1757 16.9886C16.1757 14.4921 14.1822 12.4768 11.7127 12.4768C9.24323 12.4768 7.24978 14.4921 7.24978 16.9886C7.24978 19.4851 9.24323 21.5004 11.7127 21.5004C14.1822 21.5004 16.1757 19.4851 16.1757 16.9886Z" fill="white"/>
</svg>
