<svg width="31" height="23" viewBox="0 0 31 23" fill="none" xmlns="http://www.w3.org/2000/svg">
<path d="M8.02359 20.4999V13.4L0.786091 2.42488C0.502841 2.00838 0.484091 1.58338 0.729841 1.14988C0.975841 0.716626 1.34459 0.5 1.83609 0.5H16.7112C17.203 0.5 17.5717 0.716626 17.8175 1.14988C18.0632 1.58338 18.0445 2.00838 17.7612 2.42488L10.5237 13.4V20.4999H12.3736C12.7278 20.4999 13.0247 20.6201 13.2642 20.8606C13.504 21.1011 13.6238 21.399 13.6238 21.7543C13.6238 22.1098 13.504 22.4062 13.2642 22.6438C13.0247 22.8813 12.7278 23 12.3736 23H6.17372C5.81947 23 5.52259 22.8797 5.28309 22.6392C5.04359 22.399 4.92384 22.1011 4.92384 21.7456C4.92384 21.3901 5.04359 21.0936 5.28309 20.8561C5.52259 20.6186 5.81947 20.4999 6.17372 20.4999H8.02359ZM5.94872 6.15012H12.5986L14.6738 3.00012H3.87384L5.94872 6.15012ZM21.8738 23C20.6238 23 19.5821 22.5834 18.7486 21.7501C17.9153 20.9166 17.4987 19.8749 17.4987 18.6249C17.4987 17.3749 17.9153 16.3333 18.7486 15.5C19.5821 14.6668 20.6238 14.2501 21.8738 14.2501C22.2138 14.2501 22.5383 14.2814 22.8473 14.3439C23.1566 14.4064 23.4571 14.5001 23.7488 14.6251V1.74988C23.7488 1.39588 23.8686 1.099 24.1081 0.859251C24.3476 0.619751 24.6445 0.5 24.9987 0.5H29.0236C29.5723 0.5 30.0387 0.691999 30.4227 1.076C30.8067 1.46 30.9987 1.92637 30.9987 2.47512C30.9987 3.01662 30.8067 3.48537 30.4227 3.88137C30.0387 4.27712 29.5723 4.475 29.0236 4.475H26.2486V18.6249C26.2486 19.8749 25.832 20.9166 24.9987 21.7501C24.1655 22.5834 23.1238 23 21.8738 23Z" fill="white"/>
</svg>
