<svg width="31" height="30" viewBox="0 0 31 30" fill="none" xmlns="http://www.w3.org/2000/svg">
<path d="M17.75 29.9749C14.9833 29.9749 12.6666 29.0041 10.8001 27.0626C8.93338 25.1209 8 22.7916 8 20.0749V18.9124C5.86675 18.6124 4.08338 17.6479 2.64988 16.0189C1.21663 14.3896 0.5 12.4666 0.5 10.2499V2.74988C0.5 2.39163 0.61875 2.09375 0.85625 1.85625C1.09375 1.61875 1.39163 1.5 1.74988 1.5H5V1.24988C5 0.891626 5.11875 0.59375 5.35625 0.35625C5.59375 0.11875 5.89163 0 6.24988 0C6.60838 0 6.90638 0.11875 7.14388 0.35625C7.38138 0.59375 7.50013 0.891626 7.50013 1.24988V4.24988C7.50013 4.59163 7.38138 4.88538 7.14388 5.13113C6.90638 5.37713 6.60838 5.50012 6.24988 5.50012C5.89163 5.50012 5.59375 5.38137 5.35625 5.14388C5.11875 4.90637 5 4.60838 5 4.24988V4.00012H3.00013V10.2499C3.00013 11.9834 3.60838 13.4584 4.82488 14.6749C6.04163 15.8916 7.51663 16.5 9.24988 16.5C10.9834 16.5 12.4584 15.8916 13.6749 14.6749C14.8916 13.4584 15.5 11.9834 15.5 10.2499V4.00012H13.5001V4.24988C13.5001 4.59163 13.3814 4.88538 13.1439 5.13113C12.9064 5.37713 12.6084 5.50012 12.2499 5.50012C11.8916 5.50012 11.5938 5.38137 11.3563 5.14388C11.1188 4.90637 11 4.60838 11 4.24988V1.24988C11 0.891626 11.1188 0.59375 11.3563 0.35625C11.5938 0.11875 11.8916 0 12.2499 0C12.6084 0 12.9064 0.11875 13.1439 0.35625C13.3814 0.59375 13.5001 0.891626 13.5001 1.24988V1.5H16.7499C17.1084 1.5 17.4064 1.61875 17.6439 1.85625C17.8814 2.09375 18.0001 2.39163 18.0001 2.74988V10.2499C18.0001 12.4666 17.2834 14.3896 15.8499 16.0189C14.4166 17.6479 12.6334 18.6124 10.5001 18.9124V20.0749C10.5001 22.1166 11.1896 23.8604 12.5686 25.3061C13.9479 26.7521 15.675 27.4751 17.75 27.4751C19.725 27.4751 21.4271 26.7564 22.8564 25.3189C24.2854 23.8814 24.9999 22.1334 24.9999 20.0749V17.3126C24.1249 17.0376 23.4061 16.5314 22.8436 15.7939C22.2811 15.0564 21.9999 14.2084 21.9999 13.2499C21.9999 12.0666 22.4124 11.0625 23.2374 10.2375C24.0624 9.4125 25.0666 9 26.2501 9C27.4334 9 28.4375 9.4125 29.2625 10.2375C30.0875 11.0625 30.5 12.0666 30.5 13.2499C30.5 14.2084 30.2188 15.0564 29.6563 15.7939C29.0938 16.5314 28.375 17.0376 27.5 17.3126V20.0749C27.5 22.8249 26.5459 25.1624 24.6376 27.0874C22.7291 29.0124 20.4333 29.9749 17.75 29.9749Z" fill="white"/>
</svg>
