<svg width="24" height="32" viewBox="0 0 24 32" fill="none" xmlns="http://www.w3.org/2000/svg">
<path d="M12 14.8875L9.25013 16.9624C9.11663 17.0541 8.98738 17.0563 8.86238 16.9688C8.73738 16.8813 8.69987 16.7666 8.74988 16.6249L9.79988 13.2499L6.975 11.025C6.85 10.9333 6.81663 10.8186 6.87488 10.6811C6.93337 10.5436 7.03338 10.4749 7.17488 10.4749H10.6001L11.7 7.05C11.75 6.90825 11.85 6.83738 12 6.83738C12.15 6.83738 12.25 6.90825 12.3 7.05L13.3751 10.4749H16.8124C16.9541 10.4749 17.0563 10.5436 17.1188 10.6811C17.1813 10.8186 17.15 10.9333 17.025 11.025L14.1874 13.2499L15.2126 16.6249C15.2626 16.7666 15.2293 16.8813 15.1125 16.9688C14.9958 17.0563 14.8708 17.0541 14.7375 16.9624L12 14.8875ZM12 28.5251L4.7625 30.9499C4.3625 31.0916 3.98537 31.0334 3.63112 30.7751C3.27712 30.5166 3.10013 30.1791 3.10013 29.7626V20.0374C2.03338 18.9041 1.25 17.6459 0.75 16.2626C0.25 14.8791 0 13.4583 0 12C0 8.61675 1.15413 5.77088 3.46238 3.46238C5.77088 1.15413 8.61675 0 12 0C15.3833 0 18.2291 1.15413 20.5376 3.46238C22.8459 5.77088 24 8.61675 24 12C24 13.4583 23.75 14.8791 23.25 16.2626C22.75 17.6459 21.9666 18.9041 20.8999 20.0374V29.7626C20.8999 30.1791 20.7229 30.5166 20.3689 30.7751C20.0146 31.0334 19.6375 31.0916 19.2375 30.9499L12 28.5251ZM12 21.4999C14.65 21.4999 16.8959 20.5791 18.7376 18.7376C20.5791 16.8959 21.4999 14.65 21.4999 12C21.4999 9.35 20.5791 7.10413 18.7376 5.26238C16.8959 3.42088 14.65 2.50012 12 2.50012C9.35 2.50012 7.10413 3.42088 5.26237 5.26238C3.42087 7.10413 2.50013 9.35 2.50013 12C2.50013 14.65 3.42087 16.8959 5.26237 18.7376C7.10413 20.5791 9.35 21.4999 12 21.4999Z" fill="white"/>
</svg>
