<svg width="31" height="28" viewBox="0 0 31 28" fill="none" xmlns="http://www.w3.org/2000/svg">
<path d="M15.5 0.5C17.375 0.5 19.1271 0.85 20.7564 1.55C22.3854 2.25 23.8124 3.2125 25.0374 4.4375C25.6459 5.0625 26.1918 5.7375 26.675 6.4625C27.1583 7.1875 27.5749 7.95 27.9249 8.75C28.3249 9.65825 28.6041 10.5999 28.7626 11.5749C28.9209 12.5499 28.9834 13.5374 28.9501 14.5374C28.9334 14.8959 28.7959 15.2001 28.5376 15.4501C28.2791 15.7001 27.9624 15.8251 27.5874 15.8251C27.2541 15.8251 26.9771 15.7021 26.7564 15.4561C26.5354 15.2104 26.4333 14.9166 26.45 14.5749C26.4833 14.1749 26.4895 13.7791 26.4688 13.3876C26.448 12.9959 26.4043 12.6 26.3375 12.2H21.2626C21.3041 12.6 21.3291 12.9959 21.3376 13.3876C21.3459 13.7791 21.3416 14.1749 21.3249 14.5749C21.3084 14.9334 21.1793 15.2314 20.9375 15.4689C20.6958 15.7064 20.3958 15.8251 20.0375 15.8251C19.6958 15.8251 19.4083 15.7021 19.175 15.4561C18.9418 15.2104 18.8251 14.9166 18.8251 14.5749C18.8251 14.1749 18.823 13.7791 18.8188 13.3876C18.8145 12.9959 18.7916 12.6 18.7501 12.2H12.2874C12.2459 12.6 12.2189 12.9959 12.2064 13.3876C12.1939 13.7791 12.1876 14.1749 12.1876 14.5749C12.1876 14.9166 12.0709 15.2104 11.8374 15.4561C11.6041 15.7021 11.3166 15.8251 10.9749 15.8251C10.6166 15.8251 10.3166 15.7064 10.0749 15.4689C9.83338 15.2314 9.70425 14.9334 9.6875 14.5749C9.67075 14.1749 9.66663 13.7791 9.67513 13.3876C9.68338 12.9959 9.70838 12.6 9.75013 12.2H4.7C4.63325 12.6 4.5895 12.9959 4.56875 13.3876C4.548 13.7791 4.55425 14.1749 4.5875 14.5749C4.60425 14.9166 4.50213 15.2104 4.28113 15.4561C4.06038 15.7021 3.78338 15.8251 3.45013 15.8251C3.07513 15.8251 2.75838 15.7064 2.49988 15.4689C2.24163 15.2314 2.10413 14.9334 2.08738 14.5749C2.05413 13.5749 2.11663 12.5811 2.27488 11.5936C2.43338 10.6061 2.71263 9.65825 3.11263 8.75C3.46263 7.95 3.87925 7.1875 4.3625 6.4625C4.84575 5.7375 5.39163 5.0625 6.00013 4.4375C7.22513 3.2125 8.64587 2.25 10.2624 1.55C11.8791 0.85 13.625 0.5 15.5 0.5ZM5.42488 9.69988H10.0374C10.2541 8.44163 10.5459 7.31875 10.9126 6.33125C11.2791 5.34375 11.7458 4.4 12.3125 3.5C10.7625 3.95 9.38338 4.71875 8.17513 5.80625C6.96663 6.89375 6.04988 8.19163 5.42488 9.69988ZM12.6249 9.69988H18.3751C18.1584 8.45838 17.8041 7.26675 17.3124 6.125C16.8209 4.98325 16.2168 3.89988 15.5 2.87488C14.7833 3.89988 14.177 4.98325 13.6813 6.125C13.1855 7.26675 12.8334 8.45838 12.6249 9.69988ZM20.975 9.69988H25.6126C24.9876 8.19163 24.0646 6.89375 22.8436 5.80625C21.6229 4.71875 20.2375 3.95 18.6875 3.5C19.2543 4.41675 19.723 5.36463 20.0938 6.34363C20.4645 7.32288 20.7583 8.44163 20.975 9.69988ZM15.5 27.5C15.1418 27.5 14.8439 27.3813 14.6064 27.1438C14.3689 26.9062 14.2501 26.6084 14.2501 26.2501C14.2501 24.6166 13.7793 23.3041 12.8375 22.3126C11.8958 21.3209 10.7416 20.825 9.37513 20.825H1.74988C1.39163 20.825 1.09375 20.7062 0.85625 20.4688C0.61875 20.2312 0.5 19.9334 0.5 19.5751C0.5 19.2166 0.61875 18.9186 0.85625 18.6811C1.09375 18.4436 1.39163 18.3249 1.74988 18.3249H9.37513C10.6084 18.3249 11.7563 18.6041 12.8188 19.1626C13.8813 19.7209 14.775 20.4916 15.5 21.4749C16.225 20.4916 17.1146 19.7209 18.1689 19.1626C19.2229 18.6041 20.3666 18.3249 21.6001 18.3249H29.2501C29.6084 18.3249 29.9063 18.4436 30.1438 18.6811C30.3813 18.9186 30.5 19.2166 30.5 19.5751C30.5 19.9334 30.3813 20.2312 30.1438 20.4688C29.9063 20.7062 29.6084 20.825 29.2501 20.825H21.6001C20.2501 20.825 19.1043 21.325 18.1625 22.325C17.2208 23.325 16.7499 24.6334 16.7499 26.2501C16.7499 26.6084 16.6311 26.9062 16.3936 27.1438C16.1561 27.3813 15.8583 27.5 15.5 27.5Z" fill="white"/>
</svg>
