<svg width="27" height="27" viewBox="0 0 27 27" fill="none" xmlns="http://www.w3.org/2000/svg">
<path d="M11.5893 11.5001L1.71441 7.27539C1.18291 7.02789 0.856282 6.62852 0.734532 6.07726C0.612782 5.52601 0.762283 5.03552 1.18303 4.60577L1.71441 4.06277C1.91441 3.86277 2.14178 3.72527 2.39653 3.65027C2.65103 3.57527 2.91116 3.56277 3.17691 3.61277L17.0268 6.03789L21.9018 1.15014C22.4435 0.608642 23.0998 0.337891 23.8705 0.337891C24.6415 0.337891 25.2978 0.608642 25.8393 1.15014C26.381 1.69189 26.6519 2.34814 26.6519 3.11889C26.6519 3.88989 26.381 4.54614 25.8393 5.08764L20.9643 9.97539L23.377 23.8129C23.427 24.0739 23.4165 24.335 23.3455 24.5963C23.2748 24.8573 23.1394 25.0878 22.9394 25.2878L22.3964 25.7951C21.9667 26.2236 21.4727 26.3795 20.9144 26.2628C20.3562 26.146 19.9562 25.821 19.7144 25.2878L15.502 15.4129L11.2019 19.7254L12.052 24.5501C12.102 24.7729 12.0923 24.99 12.0228 25.2015C11.9533 25.413 11.8408 25.5966 11.6853 25.7524L11.1187 26.3201C10.8074 26.6319 10.4258 26.7544 9.97378 26.6876C9.52153 26.6211 9.18503 26.3879 8.96428 25.9879L6.20203 20.8001L1.01428 18.0379C0.614283 17.8171 0.381032 17.4806 0.314532 17.0284C0.247782 16.5764 0.370283 16.1948 0.682033 15.8835L1.24978 15.3169C1.40553 15.1614 1.58916 15.0489 1.80066 14.9794C2.01216 14.9099 2.22928 14.9001 2.45203 14.9501L7.26441 15.7879L11.5893 11.5001Z" fill="white"/>
</svg>
