<svg width="24" height="32" viewBox="0 0 24 32" fill="none" xmlns="http://www.w3.org/2000/svg">
<path d="M4.125 31.9998C3 31.9998 2.03125 31.6258 1.21875 30.8778C0.40625 30.1296 0 29.2036 0 28.0998V7.02481C0 6.09881 0.28225 5.27018 0.84675 4.53893C1.41125 3.80793 2.14988 3.34493 3.06263 3.14993L14.5125 0.812181C15.2875 0.645681 15.9791 0.813556 16.5874 1.31581C17.1959 1.81806 17.5001 2.46693 17.5001 3.26243V21.6498C17.5001 22.2441 17.3168 22.7718 16.95 23.2331C16.5833 23.6943 16.1083 23.9874 15.525 24.1124L3.76237 26.5747C3.40162 26.6529 3.10113 26.8387 2.86087 27.1319C2.62037 27.4252 2.50013 27.7478 2.50013 28.0998C2.50013 28.5081 2.66263 28.8434 2.98763 29.1059C3.31263 29.3684 3.69175 29.4997 4.125 29.4997H21.4999V6.24968C21.4999 5.89568 21.6201 5.59881 21.8606 5.35906C22.1011 5.11956 22.399 4.99981 22.7543 4.99981C23.1098 4.99981 23.4063 5.11956 23.6438 5.35906C23.8813 5.59881 24 5.89568 24 6.24968V29.4997C24 30.1872 23.7553 30.7758 23.2658 31.2656C22.776 31.7551 22.1874 31.9998 21.4999 31.9998H4.125ZM6.00375 23.6024C6.2945 23.5412 6.53325 23.3983 6.72 23.1738C6.90675 22.9496 7.00013 22.6874 7.00013 22.3874V6.42481C7.00013 6.03081 6.848 5.70943 6.54375 5.46068C6.2395 5.21168 5.89025 5.12805 5.496 5.20981C5.2055 5.27105 4.96688 5.41381 4.78013 5.63806C4.59338 5.86256 4.5 6.12481 4.5 6.42481V22.3874C4.5 22.7814 4.65213 23.1028 4.95638 23.3516C5.26038 23.6003 5.6095 23.6839 6.00375 23.6024Z" fill="white"/>
</svg>
