<svg width="31" height="30" viewBox="0 0 31 30" fill="none" xmlns="http://www.w3.org/2000/svg">
<path d="M15.5 21.9997C16.7 21.9997 17.7688 21.6435 18.7063 20.931C19.6438 20.2185 20.325 19.2997 20.75 18.1747H10.25C10.675 19.2997 11.3562 20.2185 12.2937 20.931C13.2312 21.6435 14.3 21.9997 15.5 21.9997ZM11.75 15.9997C12.375 15.9997 12.9062 15.781 13.3438 15.3435C13.7812 14.906 14 14.3747 14 13.7497C14 13.1247 13.7812 12.5935 13.3438 12.156C12.9062 11.7185 12.375 11.4997 11.75 11.4997C11.125 11.4997 10.5938 11.7185 10.1562 12.156C9.71875 12.5935 9.5 13.1247 9.5 13.7497C9.5 14.3747 9.71875 14.906 10.1562 15.3435C10.5938 15.781 11.125 15.9997 11.75 15.9997ZM19.25 15.9997C19.875 15.9997 20.4062 15.781 20.8438 15.3435C21.2812 14.906 21.5 14.3747 21.5 13.7497C21.5 13.1247 21.2812 12.5935 20.8438 12.156C20.4062 11.7185 19.875 11.4997 19.25 11.4997C18.625 11.4997 18.0938 11.7185 17.6562 12.156C17.2188 12.5935 17 13.1247 17 13.7497C17 14.3747 17.2188 14.906 17.6562 15.3435C18.0938 15.781 18.625 15.9997 19.25 15.9997ZM8.98325 7.67923L13.3126 2.06211C13.5959 1.69561 13.9278 1.42273 14.3083 1.24348C14.689 1.06423 15.087 0.974609 15.5022 0.974609C15.9175 0.974609 16.3146 1.06423 16.6936 1.24348C17.0729 1.42273 17.4041 1.69561 17.6874 2.06211L22.0168 7.67923L28.5875 9.88723C29.1875 10.0872 29.6584 10.4361 30.0001 10.9339C30.3416 11.4314 30.5124 11.9811 30.5124 12.5831C30.5124 12.8609 30.4725 13.1384 30.3928 13.4156C30.3133 13.6926 30.1824 13.9581 30.0001 14.2121L25.775 20.2372L25.925 26.6122C25.9332 27.4205 25.6624 28.1039 25.1124 28.6624C24.5624 29.2206 23.911 29.4997 23.1582 29.4997C23.111 29.4997 22.8624 29.4622 22.4124 29.3872L15.5 27.4624L8.59287 29.3854C8.46438 29.4366 8.32912 29.4685 8.18713 29.481C8.04537 29.4935 7.91537 29.4997 7.79712 29.4997C7.04063 29.4997 6.39162 29.219 5.85012 28.6575C5.30837 28.096 5.05 27.4059 5.075 26.5871L5.225 20.1934L1.01262 14.1874C0.830375 13.9319 0.699375 13.6647 0.619625 13.386C0.539875 13.1072 0.5 12.8285 0.5 12.5497C0.5 11.958 0.668125 11.4175 1.00437 10.9282C1.34037 10.439 1.80975 10.092 2.4125 9.88723L8.98325 7.67923Z" fill="white"/>
</svg>
