<svg width="31" height="24" viewBox="0 0 31 24" fill="none" xmlns="http://www.w3.org/2000/svg">
<path d="M15.5 14.9749L17.9 16.8499C18.1418 17.0416 18.3918 17.0479 18.65 16.8686C18.9083 16.6896 18.9916 16.4501 18.9001 16.1501L17.9499 13.1501L20.4376 11.1251C20.6626 10.9334 20.7293 10.6979 20.6375 10.4186C20.5458 10.1396 20.3499 10.0001 20.0499 10.0001H17.1001L16.0876 7.0125C15.9791 6.72925 15.7833 6.58763 15.5 6.58763C15.2168 6.58763 15.0209 6.72925 14.9124 7.0125L13.8999 10.0001H10.9374C10.6374 10.0001 10.4436 10.1396 10.3561 10.4186C10.2686 10.6979 10.3374 10.9334 10.5624 11.1251L13.025 13.1501L12.0751 16.1625C11.9834 16.4625 12.0625 16.7021 12.3125 16.8814C12.5625 17.0604 12.8125 17.0541 13.0625 16.8626L15.5 14.9749ZM3.00013 24C2.30838 24 1.71875 23.7563 1.23125 23.2688C0.74375 22.7813 0.5 22.1916 0.5 21.4999V16.5124C0.5 16.2541 0.575 16.0291 0.725 15.8374C0.875 15.6459 1.07087 15.5168 1.31262 15.45C2.02913 15.2 2.59788 14.75 3.01888 14.1C3.43963 13.45 3.65 12.75 3.65 12C3.65 11.2668 3.43963 10.5709 3.01888 9.91238C2.59788 9.25413 2.02913 8.8 1.31262 8.55C1.07087 8.48325 0.875 8.35413 0.725 8.16263C0.575 7.97087 0.5 7.74587 0.5 7.48763V2.50012C0.5 1.80837 0.74375 1.21875 1.23125 0.73125C1.71875 0.24375 2.30838 0 3.00013 0H27.9999C28.6916 0 29.2813 0.24375 29.7688 0.73125C30.2563 1.21875 30.5 1.80837 30.5 2.50012V7.48763C30.5 7.74587 30.425 7.97087 30.275 8.16263C30.125 8.35413 29.9291 8.48325 29.6874 8.55C28.9709 8.8 28.4021 9.25413 27.9811 9.91238C27.5604 10.5709 27.35 11.2668 27.35 12C27.35 12.75 27.5604 13.45 27.9811 14.1C28.4021 14.75 28.9709 15.2 29.6874 15.45C29.9291 15.5168 30.125 15.6459 30.275 15.8374C30.425 16.0291 30.5 16.2541 30.5 16.5124V21.4999C30.5 22.1916 30.2563 22.7813 29.7688 23.2688C29.2813 23.7563 28.6916 24 27.9999 24H3.00013Z" fill="white"/>
</svg>
