<svg width="20" height="19" viewBox="0 0 20 19" fill="none" xmlns="http://www.w3.org/2000/svg">
<path d="M3.07187 18.9475C2.44221 18.9475 1.90562 18.7258 1.46212 18.2823C1.01862 17.8388 0.796875 17.3022 0.796875 16.6725V2.81602C0.796875 2.18635 1.01862 1.64977 1.46212 1.20627C1.90562 0.762765 2.44221 0.541016 3.07187 0.541016H8.86263C9.18179 0.541016 9.45121 0.650765 9.67087 0.870265C9.89037 1.08993 10.0001 1.35935 10.0001 1.67852C10.0001 1.99768 9.89037 2.2671 9.67087 2.48677C9.45121 2.70627 9.18179 2.81602 8.86263 2.81602H3.07187V16.6725H16.9284V10.8818C16.9284 10.5626 17.0381 10.2932 17.2576 10.0735C17.4773 9.85402 17.7467 9.74427 18.0659 9.74427C18.385 9.74427 18.6545 9.85402 18.8741 10.0735C19.0936 10.2932 19.2034 10.5626 19.2034 10.8818V16.6725C19.2034 17.3022 18.9816 17.8388 18.5381 18.2823C18.0946 18.7258 17.558 18.9475 16.9284 18.9475H3.07187ZM16.9284 4.40127L8.67513 12.6545C8.46396 12.8658 8.20071 12.9705 7.88538 12.9685C7.57021 12.9665 7.30704 12.8598 7.09587 12.6485C6.88454 12.4374 6.77887 12.1732 6.77887 11.856C6.77887 11.5387 6.88454 11.2744 7.09587 11.0633L15.3431 2.81602H13.1376C12.8185 2.81602 12.549 2.70627 12.3294 2.48677C12.1099 2.2671 12.0001 1.99768 12.0001 1.67852C12.0001 1.35935 12.1099 1.08993 12.3294 0.870265C12.549 0.650765 12.8185 0.541016 13.1376 0.541016H18.0659C18.385 0.541016 18.6545 0.650765 18.8741 0.870265C19.0936 1.08993 19.2034 1.35935 19.2034 1.67852V6.60677C19.2034 6.92593 19.0936 7.19535 18.8741 7.41502C18.6545 7.63452 18.385 7.74427 18.0659 7.74427C17.7467 7.74427 17.4773 7.63452 17.2576 7.41502C17.0381 7.19535 16.9284 6.92593 16.9284 6.60677V4.40127Z" fill="#1C1B1F"/>
</svg>
