<svg width="28" height="28" viewBox="0 0 28 28" fill="none" xmlns="http://www.w3.org/2000/svg">
<path d="M14.0013 27.3327C12.1569 27.3327 10.4235 26.9827 8.8013 26.2827C7.17908 25.5827 5.76797 24.6327 4.56797 23.4327C3.36797 22.2327 2.41797 20.8216 1.71797 19.1993C1.01797 17.5771 0.667969 15.8438 0.667969 13.9993C0.667969 12.1549 1.01797 10.4216 1.71797 8.79935C2.41797 7.17713 3.36797 5.76602 4.56797 4.56602C5.76797 3.36602 7.17908 2.41602 8.8013 1.71602C10.4235 1.01602 12.1569 0.666016 14.0013 0.666016C15.8457 0.666016 17.5791 1.01602 19.2013 1.71602C20.8235 2.41602 22.2346 3.36602 23.4346 4.56602C24.6346 5.76602 25.5846 7.17713 26.2846 8.79935C26.9846 10.4216 27.3346 12.1549 27.3346 13.9993C27.3346 15.8438 26.9846 17.5771 26.2846 19.1993C25.5846 20.8216 24.6346 22.2327 23.4346 23.4327C22.2346 24.6327 20.8235 25.5827 19.2013 26.2827C17.5791 26.9827 15.8457 27.3327 14.0013 27.3327ZM12.668 24.5993V21.9993C11.9346 21.9993 11.3069 21.7382 10.7846 21.216C10.2624 20.6938 10.0013 20.066 10.0013 19.3327V17.9993L3.6013 11.5993C3.53464 11.9993 3.47352 12.3993 3.41797 12.7993C3.36241 13.1993 3.33464 13.5993 3.33464 13.9993C3.33464 16.6882 4.21797 19.0438 5.98463 21.066C7.7513 23.0882 9.97908 24.266 12.668 24.5993ZM21.868 21.1993C22.7791 20.1993 23.4735 19.0827 23.9513 17.8493C24.4291 16.616 24.668 15.3327 24.668 13.9993C24.668 11.8216 24.0624 9.83268 22.8513 8.03268C21.6402 6.23268 20.0235 4.93268 18.0013 4.13268V4.66602C18.0013 5.39935 17.7402 6.02713 17.218 6.54935C16.6957 7.07157 16.068 7.33268 15.3346 7.33268H12.668V9.99935C12.668 10.3771 12.5402 10.6938 12.2846 10.9493C12.0291 11.2049 11.7124 11.3327 11.3346 11.3327H8.66797V13.9993H16.668C17.0457 13.9993 17.3624 14.1271 17.618 14.3827C17.8735 14.6382 18.0013 14.9549 18.0013 15.3327V19.3327H19.3346C19.9124 19.3327 20.4346 19.5049 20.9013 19.8493C21.368 20.1938 21.6902 20.6438 21.868 21.1993Z" fill="#2388FF"/>
</svg>
