<svg width="26" height="25" viewBox="0 0 26 25" fill="none" xmlns="http://www.w3.org/2000/svg">
<path d="M19.835 7.00065V16.0673C19.835 16.3784 19.9683 16.5895 20.235 16.7007C20.5017 16.8118 20.7461 16.7562 20.9683 16.534L24.4016 13.1007C24.6461 12.8562 24.835 12.5729 24.9683 12.2507C25.1017 11.9284 25.1683 11.5895 25.1683 11.234V3.00065C25.1683 2.26732 24.9072 1.63954 24.385 1.11732C23.8628 0.595096 23.235 0.333984 22.5017 0.333984H14.2683C13.9128 0.333984 13.5739 0.400651 13.2516 0.533984C12.9294 0.667318 12.6461 0.856207 12.4016 1.10065L8.96832 4.53398C8.74609 4.75621 8.69054 5.00065 8.80165 5.26732C8.91276 5.53398 9.12387 5.66732 9.43498 5.66732H18.5017C18.8794 5.66732 19.1961 5.7951 19.4517 6.05065C19.7072 6.30621 19.835 6.62287 19.835 7.00065ZM11.835 15.0007V24.0673C11.835 24.3784 11.9683 24.5895 12.235 24.7007C12.5016 24.8118 12.7461 24.7562 12.9683 24.534L16.4016 21.1007C16.6461 20.8562 16.835 20.5729 16.9683 20.2507C17.1017 19.9284 17.1683 19.5895 17.1683 19.234V11.0007C17.1683 10.2673 16.9072 9.63954 16.385 9.11732C15.8628 8.5951 15.235 8.33398 14.5016 8.33398H6.26832C5.91276 8.33398 5.57387 8.40065 5.25165 8.53399C4.92943 8.66732 4.64609 8.85621 4.40165 9.10065L0.968316 12.534C0.746094 12.7562 0.690538 13.0007 0.801649 13.2673C0.91276 13.534 1.12387 13.6673 1.43498 13.6673H10.5016C10.8794 13.6673 11.1961 13.7951 11.4516 14.0507C11.7072 14.3062 11.835 14.6229 11.835 15.0007Z" fill="#2388FF"/>
</svg>
