<svg width="26" height="27" viewBox="0 0 26 27" fill="none" xmlns="http://www.w3.org/2000/svg">
<path d="M1.23203 3.56602C1.4987 3.29935 1.80981 3.16602 2.16536 3.16602C2.52092 3.16602 2.83203 3.29935 3.0987 3.56602L4.06536 4.49935C4.33203 4.76602 4.46536 5.08268 4.46536 5.44935C4.46536 5.81602 4.33203 6.13268 4.06536 6.39935C3.7987 6.66602 3.48203 6.79935 3.11536 6.79935C2.7487 6.79935 2.43203 6.66602 2.16536 6.39935L1.23203 5.43268C0.965365 5.16602 0.832031 4.8549 0.832031 4.49935C0.832031 4.14379 0.965365 3.83268 1.23203 3.56602ZM12.9987 0.666016C13.3765 0.666016 13.6931 0.793793 13.9487 1.04935C14.2043 1.3049 14.332 1.62157 14.332 1.99935V3.33268C14.332 3.71046 14.2043 4.02713 13.9487 4.28268C13.6931 4.53824 13.3765 4.66602 12.9987 4.66602C12.6209 4.66602 12.3043 4.53824 12.0487 4.28268C11.7931 4.02713 11.6654 3.71046 11.6654 3.33268V1.99935C11.6654 1.62157 11.7931 1.3049 12.0487 1.04935C12.3043 0.793793 12.6209 0.666016 12.9987 0.666016ZM24.732 3.56602C24.9987 3.83268 25.1265 4.14379 25.1154 4.49935C25.1043 4.8549 24.9654 5.16602 24.6987 5.43268L23.7654 6.39935C23.4987 6.66602 23.1876 6.79935 22.832 6.79935C22.4765 6.79935 22.1654 6.66602 21.8987 6.39935C21.632 6.13268 21.4987 5.81602 21.4987 5.44935C21.4987 5.08268 21.632 4.76602 21.8987 4.49935L22.832 3.56602C23.0987 3.29935 23.4154 3.16602 23.782 3.16602C24.1487 3.16602 24.4654 3.29935 24.732 3.56602ZM3.83203 16.666H22.1654C22.4765 16.666 22.6876 16.7993 22.7987 17.066C22.9098 17.3327 22.8543 17.5771 22.632 17.7993L14.8654 25.466C14.3543 25.9771 13.732 26.2327 12.9987 26.2327C12.2654 26.2327 11.6431 25.9771 11.132 25.466L3.36536 17.7993C3.14314 17.5771 3.08759 17.3327 3.1987 17.066C3.30981 16.7993 3.52092 16.666 3.83203 16.666ZM3.0987 12.8994L6.86536 8.29935C7.10981 7.98824 7.41536 7.74935 7.78203 7.58268C8.1487 7.41602 8.53203 7.33268 8.93203 7.33268H17.0654C17.4654 7.33268 17.8487 7.41602 18.2154 7.58268C18.582 7.74935 18.8876 7.98824 19.132 8.29935L22.8987 12.8994C23.0765 13.1216 23.1098 13.3605 22.9987 13.616C22.8876 13.8716 22.6876 13.9993 22.3987 13.9993H3.5987C3.30981 13.9993 3.10981 13.8716 2.9987 13.616C2.88759 13.3605 2.92092 13.1216 3.0987 12.8994Z" fill="#2388FF"/>
</svg>
