<svg width="23" height="29" viewBox="0 0 23 29" fill="none" xmlns="http://www.w3.org/2000/svg">
<path d="M4.4987 28.3328C3.4987 28.3328 2.63759 27.9939 1.91536 27.3161C1.19314 26.6384 0.832031 25.7995 0.832031 24.7995V6.19948C0.832031 5.35503 1.09314 4.59948 1.61536 3.93281C2.13759 3.26615 2.82092 2.84392 3.66536 2.66615L13.6654 0.699479C14.4876 0.521701 15.2209 0.699479 15.8654 1.23281C16.5098 1.76615 16.832 2.45503 16.832 3.29948V19.1995C16.832 19.8439 16.632 20.4161 16.232 20.9161C15.832 21.4161 15.3209 21.7217 14.6987 21.8328L4.1987 23.9328C3.9987 23.9773 3.83203 24.0828 3.6987 24.2495C3.56536 24.4161 3.4987 24.5995 3.4987 24.7995C3.4987 25.0439 3.5987 25.2495 3.7987 25.4161C3.9987 25.5828 4.23203 25.6661 4.4987 25.6661H19.4987V5.66615C19.4987 5.28837 19.6265 4.9717 19.882 4.71615C20.1376 4.46059 20.4543 4.33281 20.832 4.33281C21.2098 4.33281 21.5265 4.46059 21.782 4.71615C22.0376 4.9717 22.1654 5.28837 22.1654 5.66615V25.6661C22.1654 26.3995 21.9043 27.0273 21.382 27.5495C20.8598 28.0717 20.232 28.3328 19.4987 28.3328H4.4987ZM6.43203 20.7995C6.74314 20.7328 6.9987 20.5773 7.1987 20.3328C7.3987 20.0884 7.4987 19.8106 7.4987 19.4995V6.26615C7.4987 5.84392 7.33759 5.49948 7.01537 5.23281C6.69314 4.96615 6.32092 4.87726 5.8987 4.96615C5.58759 5.03281 5.33203 5.18837 5.13203 5.43281C4.93203 5.67726 4.83203 5.95503 4.83203 6.26615V19.4995C4.83203 19.9217 4.99314 20.2661 5.31536 20.5328C5.63759 20.7995 6.00981 20.8884 6.43203 20.7995Z" fill="#2388FF"/>
</svg>
