<svg width="22" height="29" viewBox="0 0 22 29" fill="none" xmlns="http://www.w3.org/2000/svg">
<path d="M4.00065 28.3328C3.00065 28.3328 2.13954 27.9939 1.41732 27.3161C0.695095 26.6384 0.333984 25.7995 0.333984 24.7995V6.19948C0.333984 5.35503 0.595096 4.59948 1.11732 3.93281C1.63954 3.26615 2.32287 2.84392 3.16732 2.66615L13.1673 0.699479C13.9895 0.521701 14.7229 0.699479 15.3673 1.23281C16.0118 1.76615 16.334 2.45503 16.334 3.29948V19.1995C16.334 19.8439 16.134 20.4161 15.734 20.9161C15.334 21.4161 14.8229 21.7217 14.2007 21.8328L3.70065 23.9328C3.50065 23.9773 3.33398 24.0828 3.20065 24.2495C3.06732 24.4161 3.00065 24.5995 3.00065 24.7995C3.00065 25.0439 3.10065 25.2495 3.30065 25.4161C3.50065 25.5828 3.73398 25.6661 4.00065 25.6661H19.0007V5.66615C19.0007 5.28837 19.1284 4.9717 19.384 4.71615C19.6395 4.46059 19.9562 4.33281 20.334 4.33281C20.7118 4.33281 21.0284 4.46059 21.284 4.71615C21.5395 4.9717 21.6673 5.28837 21.6673 5.66615V25.6661C21.6673 26.3995 21.4062 27.0273 20.884 27.5495C20.3618 28.0717 19.734 28.3328 19.0007 28.3328H4.00065ZM5.93398 20.7995C6.2451 20.7328 6.50065 20.5773 6.70065 20.3328C6.90065 20.0884 7.00065 19.8106 7.00065 19.4995V6.26615C7.00065 5.84392 6.83954 5.49948 6.51732 5.23281C6.1951 4.96615 5.82287 4.87726 5.40065 4.96615C5.08954 5.03281 4.83398 5.18837 4.63398 5.43281C4.43398 5.67726 4.33398 5.95503 4.33398 6.26615V19.4995C4.33398 19.9217 4.4951 20.2661 4.81732 20.5328C5.13954 20.7995 5.51176 20.8884 5.93398 20.7995Z" fill="#2388FF"/>
</svg>
