<svg width="33" height="32" viewBox="0 0 33 32" fill="none" xmlns="http://www.w3.org/2000/svg">
<mask id="mask0_2293_10076" style="mask-type:alpha" maskUnits="userSpaceOnUse" x="0" y="0" width="33" height="32">
<rect x="0.5" width="32" height="32" fill="#D9D9D9"/>
</mask>
<g mask="url(#mask0_2293_10076)">
<path d="M15.1662 19.3346L7.26624 18.3346C6.71068 18.268 6.34957 17.968 6.1829 17.4346C6.01624 16.9013 6.1329 16.4457 6.5329 16.068L20.1662 3.0013C20.2773 2.89019 20.4107 2.80686 20.5662 2.7513C20.7218 2.69575 20.9329 2.66797 21.1996 2.66797C21.644 2.66797 21.9829 2.85686 22.2162 3.23464C22.4496 3.61241 22.4551 4.0013 22.2329 4.4013L17.8329 12.668L25.7329 13.668C26.2885 13.7346 26.6496 14.0346 26.8162 14.568C26.9829 15.1013 26.8662 15.5569 26.4662 15.9346L12.8329 29.0013C12.7218 29.1124 12.5885 29.1957 12.4329 29.2513C12.2773 29.3069 12.0662 29.3346 11.7996 29.3346C11.3551 29.3346 11.0162 29.1457 10.7829 28.768C10.5496 28.3902 10.544 28.0013 10.7662 27.6013L15.1662 19.3346Z" fill="white"/>
</g>
</svg>
