<svg width="28" height="28" viewBox="0 0 28 28" fill="none" xmlns="http://www.w3.org/2000/svg">
<path d="M13.9993 27.3346C12.1549 27.3346 10.4216 26.9846 8.79935 26.2846C7.17713 25.5846 5.76602 24.6346 4.56602 23.4346C3.36602 22.2346 2.41602 20.8235 1.71602 19.2013C1.01602 17.5791 0.666016 15.8457 0.666016 14.0013C0.666016 12.1569 1.01602 10.4235 1.71602 8.8013C2.41602 7.17908 3.36602 5.76797 4.56602 4.56797C5.76602 3.36797 7.17713 2.41797 8.79935 1.71797C10.4216 1.01797 12.1549 0.667969 13.9993 0.667969C15.8438 0.667969 17.5771 1.01797 19.1993 1.71797C20.8216 2.41797 22.2327 3.36797 23.4327 4.56797C24.6327 5.76797 25.5827 7.17908 26.2827 8.8013C26.9827 10.4235 27.3327 12.1569 27.3327 14.0013C27.3327 15.8457 26.9827 17.5791 26.2827 19.2013C25.5827 20.8235 24.6327 22.2346 23.4327 23.4346C22.2327 24.6346 20.8216 25.5846 19.1993 26.2846C17.5771 26.9846 15.8438 27.3346 13.9993 27.3346ZM12.666 24.6013V22.0013C11.9327 22.0013 11.3049 21.7402 10.7827 21.218C10.2605 20.6957 9.99935 20.068 9.99935 19.3346V18.0013L3.59935 11.6013C3.53268 12.0013 3.47157 12.4013 3.41602 12.8013C3.36046 13.2013 3.33268 13.6013 3.33268 14.0013C3.33268 16.6902 4.21602 19.0457 5.98268 21.068C7.74935 23.0902 9.97713 24.268 12.666 24.6013ZM21.866 21.2013C22.7771 20.2013 23.4716 19.0846 23.9493 17.8513C24.4271 16.618 24.666 15.3346 24.666 14.0013C24.666 11.8235 24.0605 9.83463 22.8493 8.03464C21.6382 6.23464 20.0216 4.93464 17.9993 4.13464V4.66797C17.9993 5.4013 17.7382 6.02908 17.216 6.5513C16.6938 7.07352 16.066 7.33463 15.3327 7.33463H12.666V10.0013C12.666 10.3791 12.5382 10.6957 12.2827 10.9513C12.0271 11.2069 11.7105 11.3346 11.3327 11.3346H8.66602V14.0013H16.666C17.0438 14.0013 17.3605 14.1291 17.616 14.3846C17.8716 14.6402 17.9993 14.9569 17.9993 15.3346V19.3346H19.3327C19.9105 19.3346 20.4327 19.5069 20.8993 19.8513C21.366 20.1957 21.6882 20.6457 21.866 21.2013Z" fill="#2388FF"/>
</svg>
