<svg width="32" height="32" viewBox="0 0 32 32" fill="none" xmlns="http://www.w3.org/2000/svg">
<mask id="mask0_2293_10052" style="mask-type:alpha" maskUnits="userSpaceOnUse" x="0" y="0" width="32" height="32">
<rect width="32" height="32" fill="#D9D9D9"/>
</mask>
<g mask="url(#mask0_2293_10052)">
<path d="M24.6667 23.7333V20.6667C24.6667 20.4889 24.6 20.3333 24.4667 20.2C24.3333 20.0667 24.1778 20 24 20C23.8222 20 23.6667 20.0667 23.5333 20.2C23.4 20.3333 23.3333 20.4889 23.3333 20.6667V23.7333C23.3333 23.9111 23.3667 24.0778 23.4333 24.2333C23.5 24.3889 23.6 24.5333 23.7333 24.6667L25.7667 26.7C25.9 26.8333 26.0556 26.9 26.2333 26.9C26.4111 26.9 26.5667 26.8333 26.7 26.7C26.8333 26.5667 26.9 26.4111 26.9 26.2333C26.9 26.0556 26.8333 25.9 26.7 25.7667L24.6667 23.7333ZM24 30.6667C22.1556 30.6667 20.5833 30.0167 19.2833 28.7167C17.9833 27.4167 17.3333 25.8444 17.3333 24C17.3333 22.1556 17.9833 20.5833 19.2833 19.2833C20.5833 17.9833 22.1556 17.3333 24 17.3333C25.8444 17.3333 27.4167 17.9833 28.7167 19.2833C30.0167 20.5833 30.6667 22.1556 30.6667 24C30.6667 25.8444 30.0167 27.4167 28.7167 28.7167C27.4167 30.0167 25.8444 30.6667 24 30.6667ZM10.6667 12H21.3333C21.7111 12 22.0278 11.8722 22.2833 11.6167C22.5389 11.3611 22.6667 11.0444 22.6667 10.6667C22.6667 10.2889 22.5389 9.97222 22.2833 9.71667C22.0278 9.46111 21.7111 9.33333 21.3333 9.33333H10.6667C10.2889 9.33333 9.97222 9.46111 9.71667 9.71667C9.46111 9.97222 9.33333 10.2889 9.33333 10.6667C9.33333 11.0444 9.46111 11.3611 9.71667 11.6167C9.97222 11.8722 10.2889 12 10.6667 12ZM6.66667 28C5.93333 28 5.30556 27.7389 4.78333 27.2167C4.26111 26.6944 4 26.0667 4 25.3333V6.66667C4 5.93333 4.26111 5.30556 4.78333 4.78333C5.30556 4.26111 5.93333 4 6.66667 4H25.3333C26.0667 4 26.6944 4.26111 27.2167 4.78333C27.7389 5.30556 28 5.93333 28 6.66667V13.9333C28 14.3333 27.8333 14.6444 27.5 14.8667C27.1667 15.0889 26.8111 15.1333 26.4333 15C26.0556 14.8889 25.6611 14.8056 25.25 14.75C24.8389 14.6944 24.4222 14.6667 24 14.6667C23.7556 14.6667 23.5278 14.6722 23.3167 14.6833C23.1056 14.6944 22.8889 14.7222 22.6667 14.7667C22.4667 14.7222 22.2444 14.6944 22 14.6833C21.7556 14.6722 21.5333 14.6667 21.3333 14.6667H10.6667C10.2889 14.6667 9.97222 14.7944 9.71667 15.05C9.46111 15.3056 9.33333 15.6222 9.33333 16C9.33333 16.3778 9.46111 16.6944 9.71667 16.95C9.97222 17.2056 10.2889 17.3333 10.6667 17.3333H17.5C17.1 17.7111 16.7389 18.1222 16.4167 18.5667C16.0944 19.0111 15.8111 19.4889 15.5667 20H10.6667C10.2889 20 9.97222 20.1278 9.71667 20.3833C9.46111 20.6389 9.33333 20.9556 9.33333 21.3333C9.33333 21.7111 9.46111 22.0278 9.71667 22.2833C9.97222 22.5389 10.2889 22.6667 10.6667 22.6667H14.7667C14.7222 22.8889 14.6944 23.1056 14.6833 23.3167C14.6722 23.5278 14.6667 23.7556 14.6667 24C14.6667 24.4444 14.6889 24.8667 14.7333 25.2667C14.7778 25.6667 14.8556 26.0556 14.9667 26.4333C15.0778 26.8111 15.0222 27.1667 14.8 27.5C14.5778 27.8333 14.2778 28 13.9 28H6.66667Z" fill="white"/>
</g>
</svg>
