<svg width="26" height="27" viewBox="0 0 26 27" fill="none" xmlns="http://www.w3.org/2000/svg">
<path d="M1.23398 3.56797C1.50065 3.3013 1.81176 3.16797 2.16732 3.16797C2.52287 3.16797 2.83398 3.3013 3.10065 3.56797L4.06732 4.5013C4.33398 4.76797 4.46732 5.08464 4.46732 5.4513C4.46732 5.81797 4.33398 6.13464 4.06732 6.4013C3.80065 6.66797 3.48398 6.8013 3.11732 6.8013C2.75065 6.8013 2.43398 6.66797 2.16732 6.4013L1.23398 5.43464C0.967318 5.16797 0.833984 4.85686 0.833984 4.5013C0.833984 4.14575 0.967318 3.83464 1.23398 3.56797ZM13.0007 0.667969C13.3784 0.667969 13.6951 0.795747 13.9507 1.0513C14.2062 1.30686 14.334 1.62352 14.334 2.0013V3.33464C14.334 3.71241 14.2062 4.02908 13.9507 4.28464C13.6951 4.54019 13.3784 4.66797 13.0007 4.66797C12.6229 4.66797 12.3062 4.54019 12.0507 4.28464C11.7951 4.02908 11.6673 3.71241 11.6673 3.33464V2.0013C11.6673 1.62352 11.7951 1.30686 12.0507 1.0513C12.3062 0.795747 12.6229 0.667969 13.0007 0.667969ZM24.734 3.56797C25.0007 3.83464 25.1284 4.14575 25.1173 4.5013C25.1062 4.85686 24.9673 5.16797 24.7006 5.43464L23.7673 6.4013C23.5007 6.66797 23.1895 6.8013 22.834 6.8013C22.4784 6.8013 22.1673 6.66797 21.9007 6.4013C21.634 6.13464 21.5007 5.81797 21.5007 5.4513C21.5007 5.08464 21.634 4.76797 21.9007 4.5013L22.834 3.56797C23.1006 3.3013 23.4173 3.16797 23.784 3.16797C24.1507 3.16797 24.4673 3.3013 24.734 3.56797ZM3.83398 16.668H22.1673C22.4784 16.668 22.6895 16.8013 22.8006 17.068C22.9118 17.3346 22.8562 17.5791 22.634 17.8013L14.8673 25.468C14.3562 25.9791 13.734 26.2346 13.0007 26.2346C12.2673 26.2346 11.6451 25.9791 11.134 25.468L3.36732 17.8013C3.1451 17.5791 3.08954 17.3346 3.20065 17.068C3.31176 16.8013 3.52287 16.668 3.83398 16.668ZM3.10065 12.9013L6.86732 8.3013C7.11176 7.99019 7.41732 7.7513 7.78398 7.58464C8.15065 7.41797 8.53398 7.33464 8.93398 7.33464H17.0673C17.4673 7.33464 17.8507 7.41797 18.2173 7.58464C18.584 7.7513 18.8895 7.99019 19.134 8.3013L22.9007 12.9013C23.0784 13.1235 23.1118 13.3624 23.0007 13.618C22.8895 13.8735 22.6895 14.0013 22.4007 14.0013H3.60065C3.31176 14.0013 3.11176 13.8735 3.00065 13.618C2.88954 13.3624 2.92287 13.1235 3.10065 12.9013Z" fill="#2388FF"/>
</svg>
