<svg width="33" height="32" viewBox="0 0 33 32" fill="none" xmlns="http://www.w3.org/2000/svg">
<mask id="mask0_2293_10060" style="mask-type:alpha" maskUnits="userSpaceOnUse" x="0" y="0" width="33" height="32">
<rect x="0.5" width="32" height="32" fill="#D9D9D9"/>
</mask>
<g mask="url(#mask0_2293_10060)">
<path d="M27.1658 12.5667L21.1991 18.5C20.4213 19.2778 19.4769 19.6667 18.3658 19.6667C17.2546 19.6667 16.3102 19.2778 15.5324 18.5L13.9658 16.9333C13.7213 16.6889 13.4102 16.5667 13.0324 16.5667C12.6546 16.5667 12.3435 16.6889 12.0991 16.9333L5.96576 23.0667C5.72131 23.3111 5.4102 23.4333 5.03242 23.4333C4.65464 23.4333 4.34353 23.3111 4.09909 23.0667C3.85464 22.8222 3.73242 22.5111 3.73242 22.1333C3.73242 21.7556 3.85464 21.4444 4.09909 21.2L10.2324 15.0667C11.0102 14.2889 11.9546 13.9 13.0658 13.9C14.1769 13.9 15.1213 14.2889 15.8991 15.0667L17.4324 16.6C17.6991 16.8667 18.0158 17 18.3824 17C18.7491 17 19.0658 16.8667 19.3324 16.6L25.2658 10.6667H23.1658C22.788 10.6667 22.4713 10.5389 22.2158 10.2833C21.9602 10.0278 21.8324 9.71111 21.8324 9.33333C21.8324 8.95556 21.9602 8.63889 22.2158 8.38333C22.4713 8.12778 22.788 8 23.1658 8H28.4991C28.8769 8 29.1935 8.12778 29.4491 8.38333C29.7046 8.63889 29.8324 8.95556 29.8324 9.33333V14.6667C29.8324 15.0444 29.7046 15.3611 29.4491 15.6167C29.1935 15.8722 28.8769 16 28.4991 16C28.1213 16 27.8046 15.8722 27.5491 15.6167C27.2935 15.3611 27.1658 15.0444 27.1658 14.6667V12.5667Z" fill="white"/>
</g>
</svg>
