<svg width="32" height="32" viewBox="0 0 32 32" fill="none" xmlns="http://www.w3.org/2000/svg">
<mask id="mask0_2293_10068" style="mask-type:alpha" maskUnits="userSpaceOnUse" x="0" y="0" width="32" height="32">
<rect width="32" height="32" fill="#D9D9D9"/>
</mask>
<g mask="url(#mask0_2293_10068)">
<path d="M24.8008 21.3331L17.8675 14.4664L14.4341 17.8997C13.923 18.4109 13.2897 18.6664 12.5341 18.6664C11.7786 18.6664 11.1452 18.4109 10.6341 17.8997L3.6008 10.7997C3.35635 10.5553 3.22857 10.2497 3.21746 9.88307C3.20635 9.51641 3.33413 9.19974 3.6008 8.93307C3.84524 8.68863 4.15635 8.56641 4.53413 8.56641C4.91191 8.56641 5.22302 8.68863 5.46746 8.93307L12.5341 15.9997L15.9675 12.5664C16.4786 12.0553 17.1119 11.7997 17.8675 11.7997C18.623 11.7997 19.2564 12.0553 19.7675 12.5664L26.6675 19.4664V17.3331C26.6675 16.9553 26.7952 16.6386 27.0508 16.3831C27.3064 16.1275 27.623 15.9997 28.0008 15.9997C28.3786 15.9997 28.6952 16.1275 28.9508 16.3831C29.2064 16.6386 29.3341 16.9553 29.3341 17.3331V22.6664C29.3341 23.0442 29.2064 23.3609 28.9508 23.6164C28.6952 23.872 28.3786 23.9997 28.0008 23.9997H22.6675C22.2897 23.9997 21.973 23.872 21.7175 23.6164C21.4619 23.3609 21.3341 23.0442 21.3341 22.6664C21.3341 22.2886 21.4619 21.972 21.7175 21.7164C21.973 21.4609 22.2897 21.3331 22.6675 21.3331H24.8008Z" fill="white"/>
</g>
</svg>
