<svg width="30" height="30" viewBox="0 0 30 30" fill="none" xmlns="http://www.w3.org/2000/svg">
<path d="M23.6735 8.50462L22.7362 6.3991L20.6535 5.45162C20.5237 5.39181 20.4136 5.29549 20.3364 5.17416C20.2591 5.05282 20.2181 4.9116 20.2181 4.76733C20.2181 4.62306 20.2591 4.48184 20.3364 4.3605C20.4136 4.23917 20.5237 4.14285 20.6535 4.08304L22.7362 3.13556L23.6735 1.03004C23.7326 0.898755 23.8279 0.787448 23.9479 0.709396C24.0679 0.631345 24.2076 0.589844 24.3503 0.589844C24.4931 0.589844 24.6327 0.631345 24.7528 0.709396C24.8728 0.787448 24.9681 0.898755 25.0272 1.03004L25.9645 3.13556L28.0472 4.08304C28.177 4.14285 28.2871 4.23917 28.3643 4.3605C28.4415 4.48184 28.4826 4.62306 28.4826 4.76733C28.4826 4.9116 28.4415 5.05282 28.3643 5.17416C28.2871 5.29549 28.177 5.39181 28.0472 5.45162L25.9645 6.3991L25.0272 8.50462C24.7743 9.09115 23.9412 9.09115 23.6735 8.50462ZM28.4935 15.6182L28.0174 14.5354C27.9582 14.4041 27.863 14.2928 27.743 14.2148C27.6229 14.1367 27.4832 14.0952 27.3405 14.0952C27.1978 14.0952 27.0581 14.1367 26.9381 14.2148C26.8181 14.2928 26.7228 14.4041 26.6636 14.5354L26.1876 15.6182L25.1016 16.0995C24.9717 16.1593 24.8616 16.2556 24.7844 16.377C24.7072 16.4983 24.6662 16.6395 24.6662 16.7838C24.6662 16.9281 24.7072 17.0693 24.7844 17.1906C24.8616 17.312 24.9717 17.4083 25.1016 17.4681L26.1727 17.9494L26.6488 19.0472C26.7079 19.1785 26.8032 19.2898 26.9232 19.3679C27.0433 19.4459 27.1829 19.4874 27.3257 19.4874C27.4684 19.4874 27.6081 19.4459 27.7281 19.3679C27.8481 19.2898 27.9434 19.1785 28.0025 19.0472L28.4786 17.9644L29.5646 17.4831C29.6944 17.4233 29.8045 17.327 29.8817 17.2057C29.959 17.0843 30 16.9431 30 16.7988C30 16.6546 29.959 16.5133 29.8817 16.392C29.8045 16.2707 29.6944 16.1744 29.5646 16.1145L28.4935 15.6182ZM20.9957 18.0997L22.8255 19.4984C23.4206 19.9496 23.5842 20.7918 23.2123 21.4535L20.8023 25.6646C20.4304 26.3263 19.627 26.597 18.9427 26.2962L16.8154 25.3939C16.5179 25.5894 16.1906 25.7849 15.8633 25.9503L15.5806 28.2664C15.4914 29.0183 14.8517 29.5898 14.1079 29.5898H9.30274C8.55891 29.5898 7.91922 29.0183 7.82996 28.2664L7.54731 25.9503C7.22002 25.7849 6.90762 25.6044 6.59521 25.3939L4.46786 26.2962C3.78354 26.597 2.98021 26.3263 2.6083 25.6646L0.198301 21.4535C-0.173612 20.7918 -0.00997035 19.9646 0.585091 19.4984L2.4149 18.0997V17.5433C2.4149 17.3628 2.4149 17.1673 2.42978 16.9868L0.599967 15.5882C0.00490617 15.137 -0.158736 14.2948 0.213178 13.633L2.62318 9.42202C2.99509 8.76029 3.79842 8.48958 4.48274 8.79037L6.61009 9.69273C6.90762 9.49722 7.2349 9.30171 7.56218 9.13627L7.84484 6.82021C7.91922 6.08328 8.55891 5.51178 9.30274 5.51178H14.1079C14.8517 5.51178 15.4914 6.08328 15.5806 6.83525L15.8633 9.15131C16.1906 9.31674 16.503 9.49722 16.8154 9.70777L18.9427 8.8054C19.627 8.50462 20.4304 8.77533 20.8023 9.43706L23.2123 13.6481C23.5842 14.3098 23.4206 15.137 22.8255 15.6032L20.9957 17.0019C21.0106 17.1823 21.0106 17.3628 21.0106 17.5583C21.0106 17.7538 21.0106 17.9193 20.9957 18.0997ZM16.1757 17.5433C16.1757 15.0468 14.1822 13.0315 11.7127 13.0315C9.24323 13.0315 7.24978 15.0468 7.24978 17.5433C7.24978 20.0398 9.24323 22.0551 11.7127 22.0551C14.1822 22.0551 16.1757 20.0398 16.1757 17.5433Z" fill="white"/>
</svg>
