<svg width="31" height="28" viewBox="0 0 31 28" fill="none" xmlns="http://www.w3.org/2000/svg">
<path d="M8.10976 21.8249C7.09326 22.6831 6.03289 23.0706 4.92864 22.9874C3.82439 22.9039 2.86401 22.5205 2.04751 21.8372C1.23076 21.154 0.682764 20.2686 0.403514 19.1811C0.124514 18.0936 0.330764 16.9749 1.02226 15.8249L4.00989 10.8497C3.35164 10.3165 2.82876 9.65698 2.44126 8.87123C2.05376 8.08573 1.86001 7.23686 1.86001 6.32461C1.86001 4.71586 2.43276 3.33873 3.57826 2.19323C4.72401 1.04748 6.10126 0.474609 7.71001 0.474609C9.31876 0.474609 10.6959 1.04748 11.8414 2.19323C12.9871 3.33873 13.56 4.71586 13.56 6.32461C13.56 7.93336 12.9871 9.31061 11.8414 10.4564C10.6959 11.6019 9.31876 12.1746 7.71001 12.1746C7.45501 12.1746 7.20001 12.158 6.94501 12.1247C6.69001 12.0915 6.44914 12.0415 6.22239 11.9747L3.15976 17.1246C2.83476 17.6581 2.73214 18.182 2.85189 18.6962C2.97139 19.2105 3.22551 19.6292 3.61426 19.9525C4.00301 20.2757 4.45989 20.4561 4.98489 20.4936C5.50989 20.5311 6.00989 20.3499 6.48489 19.9499L22.56 6.13711C23.5765 5.27886 24.6431 4.88936 25.7599 4.96861C26.8766 5.04761 27.8433 5.42886 28.6598 6.11236C29.4765 6.79561 30.0224 7.68511 30.2974 8.78086C30.5724 9.87686 30.364 10.9999 29.6723 12.1499L26.7098 17.1246C27.3683 17.6581 27.8913 18.3176 28.2788 19.1031C28.6663 19.8886 28.86 20.7375 28.86 21.6497C28.86 23.2585 28.2846 24.6357 27.1339 25.7815C25.9831 26.927 24.5998 27.4997 22.9838 27.4997C21.3678 27.4997 19.9931 26.927 18.8599 25.7815C17.7266 24.6357 17.16 23.2585 17.16 21.6497C17.16 20.041 17.7266 18.6639 18.8599 17.5184C19.9931 16.3726 21.3681 15.7997 22.9849 15.7997C23.2386 15.7997 23.4854 15.8122 23.7251 15.8372C23.9649 15.8622 24.2015 15.9081 24.435 15.9749L27.51 10.8497C27.835 10.3165 27.9376 9.79273 27.8179 9.27848C27.6984 8.76423 27.4443 8.34548 27.0555 8.02223C26.6668 7.69898 26.2099 7.51861 25.6849 7.48111C25.1599 7.44361 24.6599 7.62486 24.1849 8.02486L8.10976 21.8249Z" fill="white"/>
</svg>
