<svg width="29" height="28" viewBox="0 0 29 28" fill="none" xmlns="http://www.w3.org/2000/svg">
<path d="M25.4377 27.5H3.03368C2.41134 27.5 1.96924 27.2326 1.70736 26.6979C1.44548 26.1632 1.48929 25.6464 1.8388 25.1476L8.85873 15.2898C9.13256 14.8915 9.48107 14.5868 9.90426 14.3757C10.3274 14.1646 10.788 14.0586 11.2858 14.0576H17.2976L25.8111 4.1251C26.2592 3.60234 26.8069 3.45895 27.4541 3.69494C28.1013 3.93093 28.4249 4.39793 28.4249 5.09594V24.5128C28.4249 25.3343 28.1327 26.0378 27.5482 26.6233C26.9637 27.2087 26.2602 27.501 25.4377 27.5ZM8.26129 11.0704L3.63112 17.6049C3.38219 17.9534 3.05857 18.159 2.66028 18.2217C2.26198 18.2845 1.88858 18.1909 1.54008 17.9409C1.19157 17.691 0.986447 17.3674 0.924711 16.9701C0.862976 16.5728 0.956077 16.1994 1.20402 15.8499L5.87153 9.35271C6.14535 8.95442 6.49386 8.64325 6.91705 8.41921C7.34024 8.19517 7.80077 8.08315 8.29863 8.08315H14.3104L20.3595 1.02587C20.6333 0.702259 20.9694 0.528005 21.3677 0.503112C21.766 0.478218 22.1269 0.602685 22.4505 0.876513C22.7741 1.15034 22.9484 1.4864 22.9733 1.88469C22.9982 2.28299 22.8737 2.64394 22.5999 2.96756L16.5508 10.0248C16.277 10.3733 15.9409 10.6347 15.5426 10.809C15.1443 10.9832 14.7336 11.0704 14.3104 11.0704H8.26129Z" fill="white"/>
</svg>
