<svg width="24" height="24" viewBox="0 0 24 24" fill="none" xmlns="http://www.w3.org/2000/svg">
<path d="M2.66667 24C1.93333 24 1.30556 23.7389 0.783333 23.2167C0.261111 22.6944 0 22.0667 0 21.3333V4.7C0 4.38889 0.05 4.08889 0.15 3.8C0.25 3.51111 0.4 3.24444 0.6 3L2.26667 0.966667C2.51111 0.655556 2.81667 0.416667 3.18333 0.25C3.55 0.0833333 3.93333 0 4.33333 0H19.6667C20.0667 0 20.45 0.0833333 20.8167 0.25C21.1833 0.416667 21.4889 0.655556 21.7333 0.966667L23.4 3C23.6 3.24444 23.75 3.51111 23.85 3.8C23.95 4.08889 24 4.38889 24 4.7V21.3333C24 22.0667 23.7389 22.6944 23.2167 23.2167C22.6944 23.7389 22.0667 24 21.3333 24H2.66667ZM3.2 4H20.8L19.6667 2.66667H4.33333L3.2 4ZM17.3333 6.66667H6.66667V15.1667C6.66667 15.6778 6.87778 16.0611 7.3 16.3167C7.72222 16.5722 8.15556 16.5889 8.6 16.3667L12 14.6667L15.4 16.3667C15.8444 16.5889 16.2778 16.5722 16.7 16.3167C17.1222 16.0611 17.3333 15.6778 17.3333 15.1667V6.66667Z" fill="white"/>
</svg>
