<svg width="22" height="28" viewBox="0 0 22 28" fill="none" xmlns="http://www.w3.org/2000/svg">
<path d="M11.3346 24.5339C13.4902 23.8672 15.2902 22.5505 16.7346 20.5839C18.1791 18.6172 19.0235 16.4227 19.268 14.0005H11.3346V3.50052L3.33464 6.50052V13.4005C3.33464 13.5561 3.35686 13.7561 3.4013 14.0005H11.3346V24.5339ZM11.3346 27.2005C11.1791 27.2005 11.0346 27.1894 10.9013 27.1672C10.768 27.145 10.6346 27.1116 10.5013 27.0672C7.5013 26.0672 5.11241 24.2172 3.33464 21.5172C1.55686 18.8172 0.667969 15.9116 0.667969 12.8005V6.50052C0.667969 5.94497 0.82908 5.44497 1.1513 5.00052C1.47352 4.55608 1.89019 4.23385 2.4013 4.03385L10.4013 1.03385C10.7124 0.922743 11.0235 0.867188 11.3346 0.867188C11.6457 0.867188 11.9569 0.922743 12.268 1.03385L20.268 4.03385C20.7791 4.23385 21.1957 4.55608 21.518 5.00052C21.8402 5.44497 22.0013 5.94497 22.0013 6.50052V12.8005C22.0013 15.9116 21.1124 18.8172 19.3346 21.5172C17.5569 24.2172 15.168 26.0672 12.168 27.0672C12.0346 27.1116 11.9013 27.145 11.768 27.1672C11.6346 27.1894 11.4902 27.2005 11.3346 27.2005Z" fill="white"/>
</svg>
