<svg width="27" height="27" viewBox="0 0 27 27" fill="none" xmlns="http://www.w3.org/2000/svg">
<path d="M0.933073 11.0997L6.53307 5.49972C6.84418 5.18861 7.21085 4.96639 7.63307 4.83306C8.0553 4.69972 8.48863 4.6775 8.93307 4.76639L10.6664 5.13306C9.46641 6.55528 8.52196 7.84417 7.83307 8.99972C7.14418 10.1553 6.47752 11.5553 5.83307 13.1997L0.933073 11.0997ZM7.76641 14.1331C8.27752 12.5331 8.97196 11.0219 9.84974 9.59972C10.7275 8.1775 11.7886 6.84417 13.0331 5.59972C14.9886 3.64417 17.222 2.18306 19.7331 1.21639C22.2442 0.249723 24.5886 -0.044721 26.7664 0.333057C27.1442 2.51083 26.8553 4.85528 25.8997 7.36639C24.9442 9.8775 23.4886 12.1108 21.5331 14.0664C20.3109 15.2886 18.9775 16.3497 17.5331 17.2497C16.0886 18.1497 14.5664 18.8553 12.9664 19.3664L7.76641 14.1331ZM16.9664 10.1331C17.4775 10.6442 18.1053 10.8997 18.8497 10.8997C19.5942 10.8997 20.222 10.6442 20.7331 10.1331C21.2442 9.62195 21.4997 8.99417 21.4997 8.24972C21.4997 7.50528 21.2442 6.8775 20.7331 6.36639C20.222 5.85528 19.5942 5.59972 18.8497 5.59972C18.1053 5.59972 17.4775 5.85528 16.9664 6.36639C16.4553 6.8775 16.1997 7.50528 16.1997 8.24972C16.1997 8.99417 16.4553 9.62195 16.9664 10.1331ZM16.0331 26.1664L13.8997 21.2664C15.5442 20.6219 16.9497 19.9553 18.1164 19.2664C19.2831 18.5775 20.5775 17.6331 21.9997 16.4331L22.3331 18.1664C22.422 18.6108 22.3997 19.0497 22.2664 19.4831C22.1331 19.9164 21.9109 20.2886 21.5997 20.5997L16.0331 26.1664ZM3.06641 18.3997C3.84418 17.6219 4.78863 17.2275 5.89974 17.2164C7.01085 17.2053 7.9553 17.5886 8.73307 18.3664C9.51085 19.1442 9.89974 20.0886 9.89974 21.1997C9.89974 22.3108 9.51085 23.2553 8.73307 24.0331C8.17752 24.5886 7.24974 25.0664 5.94974 25.4664C4.64974 25.8664 2.8553 26.2219 0.566406 26.5331C0.877517 24.2442 1.23307 22.4553 1.63307 21.1664C2.03307 19.8775 2.51085 18.9553 3.06641 18.3997Z" fill="white"/>
</svg>
