<svg width="30" height="22" viewBox="0 0 30 22" fill="none" xmlns="http://www.w3.org/2000/svg">
<path d="M0 17.934C0 17.1784 0.194444 16.484 0.583333 15.8507C0.972222 15.2173 1.48889 14.734 2.13333 14.4007C3.51111 13.7118 4.91111 13.1951 6.33333 12.8507C7.75556 12.5062 9.2 12.334 10.6667 12.334C12.1333 12.334 13.5778 12.5062 15 12.8507C16.4222 13.1951 17.8222 13.7118 19.2 14.4007C19.8444 14.734 20.3611 15.2173 20.75 15.8507C21.1389 16.484 21.3333 17.1784 21.3333 17.934V19.0007C21.3333 19.734 21.0722 20.3618 20.55 20.884C20.0278 21.4062 19.4 21.6673 18.6667 21.6673H2.66667C1.93333 21.6673 1.30556 21.4062 0.783333 20.884C0.261111 20.3618 0 19.734 0 19.0007V17.934ZM23.2667 21.6673C23.5111 21.2673 23.6944 20.8395 23.8167 20.384C23.9389 19.9284 24 19.4673 24 19.0007V17.6673C24 16.6895 23.7278 15.7507 23.1833 14.8507C22.6389 13.9507 21.8667 13.1784 20.8667 12.534C22 12.6673 23.0667 12.8951 24.0667 13.2173C25.0667 13.5395 26 13.934 26.8667 14.4007C27.6667 14.8451 28.2778 15.3395 28.7 15.884C29.1222 16.4284 29.3333 17.0229 29.3333 17.6673V19.0007C29.3333 19.734 29.0722 20.3618 28.55 20.884C28.0278 21.4062 27.4 21.6673 26.6667 21.6673H23.2667ZM10.6667 11.0007C9.2 11.0007 7.94445 10.4784 6.9 9.43398C5.85556 8.38954 5.33333 7.13398 5.33333 5.66732C5.33333 4.20065 5.85556 2.9451 6.9 1.90065C7.94445 0.856207 9.2 0.333984 10.6667 0.333984C12.1333 0.333984 13.3889 0.856207 14.4333 1.90065C15.4778 2.9451 16 4.20065 16 5.66732C16 7.13398 15.4778 8.38954 14.4333 9.43398C13.3889 10.4784 12.1333 11.0007 10.6667 11.0007ZM24 5.66732C24 7.13398 23.4778 8.38954 22.4333 9.43398C21.3889 10.4784 20.1333 11.0007 18.6667 11.0007C18.4222 11.0007 18.1111 10.9729 17.7333 10.9173C17.3556 10.8618 17.0444 10.8007 16.8 10.734C17.4 10.0229 17.8611 9.23398 18.1833 8.36732C18.5056 7.50065 18.6667 6.60065 18.6667 5.66732C18.6667 4.73398 18.5056 3.83398 18.1833 2.96732C17.8611 2.10065 17.4 1.31176 16.8 0.600651C17.1111 0.48954 17.4222 0.417318 17.7333 0.383984C18.0444 0.350651 18.3556 0.333984 18.6667 0.333984C20.1333 0.333984 21.3889 0.856207 22.4333 1.90065C23.4778 2.9451 24 4.20065 24 5.66732Z" fill="white"/>
</svg>
