<svg width="24" height="24" viewBox="0 0 24 24" fill="none" xmlns="http://www.w3.org/2000/svg">
<path d="M8 16C5.77778 16 3.88889 15.2222 2.33333 13.6667C0.777778 12.1111 0 10.2222 0 8C0 7.55555 0.0333333 7.11111 0.1 6.66667C0.166667 6.22222 0.288889 5.8 0.466667 5.4C0.577778 5.17778 0.716667 5.01111 0.883333 4.9C1.05 4.78889 1.23333 4.71111 1.43333 4.66667C1.63333 4.62222 1.83889 4.62778 2.05 4.68333C2.26111 4.73889 2.45556 4.85556 2.63333 5.03333L6.13333 8.53333L8.53333 6.13333L5.03333 2.63333C4.85556 2.45556 4.73889 2.26111 4.68333 2.05C4.62778 1.83889 4.62222 1.63333 4.66667 1.43333C4.71111 1.23333 4.78889 1.05 4.9 0.883333C5.01111 0.716667 5.17778 0.577778 5.4 0.466667C5.8 0.288889 6.22222 0.166667 6.66667 0.1C7.11111 0.0333333 7.55555 0 8 0C10.2222 0 12.1111 0.777778 13.6667 2.33333C15.2222 3.88889 16 5.77778 16 8C16 8.51111 15.9556 8.99444 15.8667 9.45C15.7778 9.90555 15.6444 10.3556 15.4667 10.8L22.2 17.4667C22.8444 18.1111 23.1667 18.9 23.1667 19.8333C23.1667 20.7667 22.8444 21.5556 22.2 22.2C21.5556 22.8444 20.7667 23.1667 19.8333 23.1667C18.9 23.1667 18.1111 22.8333 17.4667 22.1667L10.8 15.4667C10.3556 15.6444 9.90555 15.7778 9.45 15.8667C8.99444 15.9556 8.51111 16 8 16Z" fill="white"/>
</svg>
