<svg width="25" height="24" viewBox="0 0 25 24" fill="none" xmlns="http://www.w3.org/2000/svg">
<path d="M3.00065 24C2.26732 24 1.63954 23.7389 1.11732 23.2167C0.595096 22.6944 0.333984 22.0667 0.333984 21.3333V1.33333C0.333984 0.955556 0.461762 0.638889 0.717318 0.383333C0.972873 0.127778 1.28954 0 1.66732 0C2.0451 0 2.36176 0.127778 2.61732 0.383333C2.87287 0.638889 3.00065 0.955556 3.00065 1.33333V21.3333H23.0007C23.3784 21.3333 23.6951 21.4611 23.9507 21.7167C24.2062 21.9722 24.334 22.2889 24.334 22.6667C24.334 23.0444 24.2062 23.3611 23.9507 23.6167C23.6951 23.8722 23.3784 24 23.0007 24H3.00065ZM5.66732 20C5.28954 20 4.97287 19.8722 4.71732 19.6167C4.46176 19.3611 4.33398 19.0444 4.33398 18.6667V9.33333C4.33398 8.95556 4.46176 8.63889 4.71732 8.38333C4.97287 8.12778 5.28954 8 5.66732 8H8.33398C8.71176 8 9.02843 8.12778 9.28399 8.38333C9.53954 8.63889 9.66732 8.95556 9.66732 9.33333V18.6667C9.66732 19.0444 9.53954 19.3611 9.28399 19.6167C9.02843 19.8722 8.71176 20 8.33398 20H5.66732ZM12.334 20C11.9562 20 11.6395 19.8722 11.384 19.6167C11.1284 19.3611 11.0007 19.0444 11.0007 18.6667V2.66667C11.0007 2.28889 11.1284 1.97222 11.384 1.71667C11.6395 1.46111 11.9562 1.33333 12.334 1.33333H15.0007C15.3784 1.33333 15.6951 1.46111 15.9507 1.71667C16.2062 1.97222 16.334 2.28889 16.334 2.66667V18.6667C16.334 19.0444 16.2062 19.3611 15.9507 19.6167C15.6951 19.8722 15.3784 20 15.0007 20H12.334ZM19.0007 20C18.6229 20 18.3062 19.8722 18.0507 19.6167C17.7951 19.3611 17.6673 19.0444 17.6673 18.6667V14.6667C17.6673 14.2889 17.7951 13.9722 18.0507 13.7167C18.3062 13.4611 18.6229 13.3333 19.0007 13.3333H21.6673C22.0451 13.3333 22.3618 13.4611 22.6173 13.7167C22.8729 13.9722 23.0007 14.2889 23.0007 14.6667V18.6667C23.0007 19.0444 22.8729 19.3611 22.6173 19.6167C22.3618 19.8722 22.0451 20 21.6673 20H19.0007Z" fill="white"/>
</svg>
