<svg width="31" height="31" viewBox="0 0 31 31" fill="none" xmlns="http://www.w3.org/2000/svg">
<path d="M28.2221 31.0003H2.13873C1.574 31.0003 1.1597 30.7526 0.895809 30.2573C0.63192 29.7618 0.666642 29.2826 0.999976 28.8198L9.33331 17.1532C9.58331 16.7826 9.90734 16.4979 10.3054 16.299C10.7037 16.0998 11.1251 16.0003 11.5696 16.0003H18.5833L28.5554 4.36151C28.9815 3.87068 29.4954 3.73401 30.0971 3.95151C30.699 4.16929 31 4.6022 31 5.25026V28.2223C31 28.991 30.7291 29.6461 30.1875 30.1878C29.6458 30.7294 28.9907 31.0003 28.2221 31.0003ZM8.19456 12.1115L2.91664 19.514C2.67581 19.829 2.37484 20.0212 2.01373 20.0907C1.65261 20.1601 1.3147 20.0744 0.999976 19.8336C0.685253 19.5928 0.49317 19.2872 0.423725 18.9169C0.354281 18.5466 0.439837 18.204 0.680392 17.889L5.97206 10.5003C6.22206 10.13 6.55081 9.8429 6.95831 9.63901C7.36581 9.4354 7.79178 9.33359 8.23623 9.33359H15.1946L22.0279 1.37526C22.2779 1.0697 22.588 0.903038 22.9583 0.87526C23.3286 0.847483 23.6665 0.958594 23.9721 1.20859C24.2776 1.45859 24.4443 1.77345 24.4721 2.15318C24.4998 2.53262 24.3887 2.87512 24.1387 3.18068L17.3054 11.139C17.0554 11.454 16.7453 11.6948 16.375 11.8615C16.0047 12.0282 15.6112 12.1115 15.1946 12.1115H8.19456Z" fill="white"/>
</svg>
