<svg width="40" height="40" viewBox="0 0 40 40" fill="none" xmlns="http://www.w3.org/2000/svg">
<mask id="mask0_1026_1630" style="mask-type:alpha" maskUnits="userSpaceOnUse" x="0" y="0" width="40" height="40">
<rect width="40" height="40" fill="#D9D9D9"/>
</mask>
<g mask="url(#mask0_1026_1630)">
<path d="M30.4167 32.3752L28.7221 34.0419C28.4538 34.2919 28.1321 34.4215 27.7571 34.4307C27.3821 34.4401 27.0557 34.3059 26.7779 34.0282C26.5093 33.7596 26.3796 33.4354 26.3888 33.0557C26.3982 32.6762 26.5279 32.3522 26.7779 32.0836L28.4304 30.389L26.7779 28.7365C26.5093 28.4679 26.375 28.1461 26.375 27.7711C26.375 27.3961 26.5093 27.0697 26.7779 26.7919C27.0557 26.5141 27.3821 26.3752 27.7571 26.3752C28.1321 26.3752 28.4585 26.5141 28.7362 26.7919L30.4167 28.4448L32.0696 26.7782C32.3379 26.5004 32.6596 26.3568 33.0346 26.3473C33.4096 26.3382 33.736 26.4725 34.0138 26.7502C34.2915 27.028 34.4304 27.359 34.4304 27.7432C34.4304 28.1276 34.2915 28.4587 34.0138 28.7365L32.3612 30.389L34.0279 32.0836C34.3057 32.3614 34.4422 32.6854 34.4375 33.0557C34.4328 33.4262 34.2915 33.7504 34.0138 34.0282C33.736 34.2965 33.4119 34.433 33.0417 34.4377C32.6714 34.4425 32.3474 34.3059 32.0696 34.0282L30.4167 32.3752ZM9.72208 32.2223C10.2685 32.2223 10.7292 32.0348 11.1042 31.6598C11.4792 31.2848 11.6667 30.8243 11.6667 30.2782C11.6667 29.7318 11.4792 29.2711 11.1042 28.8961C10.7292 28.5211 10.2685 28.3336 9.72208 28.3336C9.17597 28.3336 8.71542 28.5211 8.34042 28.8961C7.96542 29.2711 7.77792 29.7318 7.77792 30.2782C7.77792 30.8243 7.96542 31.2848 8.34042 31.6598C8.71542 32.0348 9.17597 32.2223 9.72208 32.2223ZM9.72208 35.0002C8.40736 35.0002 7.29167 34.5419 6.375 33.6252C5.45833 32.7086 5 31.5929 5 30.2782C5 28.9632 5.45833 27.8473 6.375 26.9307C7.29167 26.014 8.40736 25.5557 9.72208 25.5557C10.7685 25.5557 11.7014 25.859 12.5208 26.4657C13.3403 27.0721 13.9074 27.8707 14.2221 28.8615C15.4721 28.7226 16.5161 28.1809 17.3542 27.2365C18.1922 26.2921 18.6113 25.1855 18.6113 23.9169V16.6669C18.6113 14.4355 19.396 12.5351 20.9654 10.9657C22.5349 9.39622 24.4353 8.6115 26.6667 8.6115H29.6388L27.7083 6.68066C27.4306 6.40289 27.2986 6.0765 27.3125 5.7015C27.3264 5.3265 27.4722 5.00011 27.75 4.72233C28.0278 4.44455 28.3542 4.30566 28.7292 4.30566C29.1042 4.30566 29.4306 4.44455 29.7083 4.72233L34.0279 9.02816C34.3057 9.30594 34.4446 9.62997 34.4446 10.0002C34.4446 10.3705 34.3057 10.6946 34.0279 10.9723L29.6946 15.3057C29.426 15.5743 29.1042 15.7109 28.7292 15.7157C28.3542 15.7201 28.0278 15.5834 27.75 15.3057C27.4722 15.0373 27.3288 14.7087 27.3196 14.3198C27.3101 13.9309 27.4397 13.5976 27.7083 13.3198L29.6388 11.389H26.6667C25.2036 11.389 23.9582 11.9029 22.9304 12.9307C21.9026 13.9584 21.3888 15.2039 21.3888 16.6669V23.9169C21.3888 25.9447 20.7036 27.7016 19.3333 29.1877C17.9631 30.6739 16.2686 31.4957 14.25 31.6532C13.9353 32.6437 13.3635 33.4493 12.5346 34.0698C11.706 34.6901 10.7685 35.0002 9.72208 35.0002ZM9.61125 11.5973L7.91667 13.264C7.64806 13.514 7.32625 13.6437 6.95125 13.6532C6.57625 13.6623 6.24986 13.528 5.97208 13.2502C5.70375 12.9816 5.57417 12.6576 5.58333 12.2782C5.5925 11.8984 5.72208 11.5743 5.97208 11.3057L7.625 9.6115L5.97208 7.95858C5.70375 7.68997 5.56958 7.36816 5.56958 6.99316C5.56958 6.61816 5.70375 6.29178 5.97208 6.014C6.24986 5.73622 6.57625 5.59733 6.95125 5.59733C7.32625 5.59733 7.65264 5.73622 7.93042 6.014L9.61125 7.66691L11.2637 6.00025C11.5324 5.72247 11.8542 5.579 12.2292 5.56983C12.6042 5.56038 12.9306 5.69455 13.2083 5.97233C13.4861 6.25011 13.625 6.58122 13.625 6.96566C13.625 7.34983 13.4861 7.6808 13.2083 7.95858L11.5554 9.6115L13.2221 11.3057C13.4999 11.5834 13.6365 11.9076 13.6321 12.2782C13.6274 12.6484 13.4861 12.9725 13.2083 13.2502C12.9306 13.5189 12.6065 13.6554 12.2363 13.6598C11.8657 13.6646 11.5415 13.528 11.2637 13.2502L9.61125 11.5973Z" fill="white"/>
</g>
</svg>
