<svg width="34" height="34" viewBox="0 0 34 34" fill="none" xmlns="http://www.w3.org/2000/svg">
<path d="M4.58333 33.6663C3.31028 33.6663 2.22806 33.2208 1.33667 32.3297C0.445556 31.4383 0 30.3561 0 29.083V25.0551C0 24.6618 0.133056 24.3319 0.399167 24.0655C0.665556 23.7994 0.995417 23.6663 1.38875 23.6663H5V3.11092C5 2.34703 5.27194 1.69301 5.81583 1.14884C6.36 0.604953 7.01403 0.333008 7.77792 0.333008H27.2221C27.986 0.333008 28.64 0.604953 29.1842 1.14884C29.7281 1.69301 30 2.34703 30 3.11092V13.1109C30 13.5043 29.8664 13.8341 29.5992 14.1005C29.3322 14.3666 29.0013 14.4997 28.6063 14.4997C28.2113 14.4997 27.8818 14.3666 27.6179 14.1005C27.354 13.8341 27.2221 13.5043 27.2221 13.1109V3.11092H7.77792V23.6663H16.0971C16.6829 23.6663 17.084 23.9326 17.3004 24.4651C17.5168 24.9973 17.4213 25.4672 17.0138 25.8747L16.375 26.5134C16.125 26.7634 15.926 27.0601 15.7779 27.4034C15.6296 27.7465 15.5554 28.1073 15.5554 28.4859V32.2776C15.5554 32.6709 15.4224 33.0008 15.1563 33.2672C14.8901 33.5333 14.5603 33.6663 14.1667 33.6663H4.58333ZM18.3333 32.2776V29.1109C18.3333 28.9256 18.3657 28.7497 18.4304 28.583C18.4954 28.4163 18.6019 28.2636 18.75 28.1247L27.5308 19.3809C27.7831 19.1287 28.0632 18.9466 28.3713 18.8347C28.6793 18.7225 28.9861 18.6663 29.2917 18.6663C29.625 18.6663 29.9444 18.7288 30.25 18.8538C30.5556 18.9788 30.8333 19.1663 31.0833 19.4163L32.625 20.958C32.8658 21.208 33.044 21.4858 33.1596 21.7913C33.2754 22.0969 33.3333 22.4025 33.3333 22.708C33.3333 23.0136 33.2732 23.3261 33.1529 23.6455C33.0324 23.965 32.8464 24.2508 32.595 24.503L23.8763 33.248C23.7365 33.388 23.5833 33.4927 23.4167 33.5622C23.25 33.6316 23.074 33.6663 22.8888 33.6663H19.7221C19.3288 33.6663 18.9989 33.5333 18.7325 33.2672C18.4664 33.0008 18.3333 32.6709 18.3333 32.2776ZM29.2917 24.333L30.8333 22.708L29.2917 21.1663L27.7083 22.7497L29.2917 24.333ZM11.3888 13.1109H23.6113C24.0046 13.1109 24.3344 13.2444 24.6008 13.5113C24.8669 13.7786 25 14.1097 25 14.5047C25 14.8994 24.8669 15.2287 24.6008 15.4926C24.3344 15.7565 24.0046 15.8884 23.6113 15.8884H11.3888C10.9954 15.8884 10.6656 15.755 10.3992 15.488C10.1331 15.2208 10 14.8897 10 14.4947C10 14.1 10.1331 13.7706 10.3992 13.5068C10.6656 13.2429 10.9954 13.1109 11.3888 13.1109ZM11.3888 8.11092H23.6113C24.0046 8.11092 24.3344 8.2444 24.6008 8.51134C24.8669 8.77857 25 9.10967 25 9.50467C25 9.8994 24.8669 10.2287 24.6008 10.4926C24.3344 10.7565 24.0046 10.8884 23.6113 10.8884H11.3888C10.9954 10.8884 10.6656 10.755 10.3992 10.488C10.1331 10.2208 10 9.88968 10 9.49468C10 9.09995 10.1331 8.77065 10.3992 8.50676C10.6656 8.24287 10.9954 8.11092 11.3888 8.11092Z" fill="white"/>
</svg>
