<svg width="34" height="34" viewBox="0 0 34 34" fill="none" xmlns="http://www.w3.org/2000/svg">
<path d="M5.33325 33.6663C3.94436 33.6663 2.76381 33.1802 1.79159 32.208C0.819363 31.2358 0.333252 30.0552 0.333252 28.6663C0.333252 27.5275 0.67353 26.5205 1.35409 25.6455C2.03464 24.7705 2.89811 24.1802 3.9445 23.8747V10.1247C2.89811 9.81912 2.03464 9.22884 1.35409 8.35384C0.67353 7.47884 0.333252 6.4719 0.333252 5.33301C0.333252 3.94412 0.819363 2.76356 1.79159 1.79134C2.76381 0.819119 3.94436 0.333008 5.33325 0.333008C6.47214 0.333008 7.47909 0.673286 8.35409 1.35384C9.22909 2.0344 9.81936 2.89787 10.1249 3.94426H23.8749C24.1713 2.89787 24.757 2.0344 25.632 1.35384C26.507 0.673286 27.5185 0.333008 28.6666 0.333008C30.0555 0.333008 31.236 0.819119 32.2083 1.79134C33.1805 2.76356 33.6666 3.94412 33.6666 5.33301C33.6666 6.48106 33.3263 7.49259 32.6458 8.36759C31.9652 9.24259 31.1017 9.82829 30.0553 10.1247V23.8747C31.1017 24.1802 31.9652 24.7705 32.6458 25.6455C33.3263 26.5205 33.6666 27.5275 33.6666 28.6663C33.6666 30.0552 33.1805 31.2358 32.2083 32.208C31.236 33.1802 30.0555 33.6663 28.6666 33.6663C27.5277 33.6663 26.5208 33.3261 25.6458 32.6455C24.7708 31.965 24.1805 31.1015 23.8749 30.0551H10.1249C9.81936 31.1015 9.22909 31.965 8.35409 32.6455C7.47909 33.3261 6.47214 33.6663 5.33325 33.6663ZM10.1249 27.2776H23.8749C24.1063 26.4443 24.523 25.7266 25.1249 25.1247C25.7269 24.5227 26.4445 24.1061 27.2778 23.8747V10.1247C26.4445 9.89329 25.7269 9.47662 25.1249 8.87468C24.523 8.27273 24.1063 7.55509 23.8749 6.72176H10.1249C9.89353 7.55509 9.47686 8.27273 8.87492 8.87468C8.27298 9.47662 7.55534 9.89329 6.722 10.1247V23.8747C7.55534 24.1061 8.27298 24.5227 8.87492 25.1247C9.47686 25.7266 9.89353 26.4443 10.1249 27.2776Z" fill="white"/>
</svg>
